<mxfile host="app.diagrams.net" modified="2023-10-30T17:41:54.570Z" agent="Mozilla/5.0 (Macintosh; Intel Mac OS X 10_15_7) AppleWebKit/537.36 (KHTML, like Gecko) Chrome/118.0.0.0 Safari/537.36" etag="Qm2yU1wX0rMd9mk2fOuX" version="22.0.8" type="github" pages="4">
  <diagram id="C7MPo83l5ViuVZeambWs" name="人生建模">
    <mxGraphModel dx="3723" dy="1958" grid="1" gridSize="10" guides="1" tooltips="1" connect="1" arrows="1" fold="1" page="1" pageScale="1" pageWidth="827" pageHeight="1169" math="0" shadow="0">
      <root>
        <mxCell id="0" />
        <mxCell id="1" parent="0" />
        <mxCell id="J9Pcfo4qTEKgWs_4wT55-1" value="" style="rounded=0;whiteSpace=wrap;html=1;strokeColor=#9673a6;fontStyle=1;fillColor=#e1d5e7;" parent="1" vertex="1">
          <mxGeometry x="800" y="920" width="560" height="240" as="geometry" />
        </mxCell>
        <mxCell id="J9Pcfo4qTEKgWs_4wT55-2" value="" style="rounded=0;whiteSpace=wrap;html=1;strokeColor=#9673a6;fontStyle=1;fillColor=#e1d5e7;" parent="1" vertex="1">
          <mxGeometry x="800" width="240" height="700" as="geometry" />
        </mxCell>
        <mxCell id="J9Pcfo4qTEKgWs_4wT55-3" value="" style="rounded=0;whiteSpace=wrap;html=1;strokeColor=#9673a6;fontStyle=1;fillColor=#e1d5e7;" parent="1" vertex="1">
          <mxGeometry x="840" y="468.5" width="160" height="179.5" as="geometry" />
        </mxCell>
        <mxCell id="J9Pcfo4qTEKgWs_4wT55-4" value="" style="rounded=0;whiteSpace=wrap;html=1;strokeColor=#9673a6;fontStyle=1;fillColor=#e1d5e7;" parent="1" vertex="1">
          <mxGeometry x="840" y="221.5" width="160" height="179.5" as="geometry" />
        </mxCell>
        <mxCell id="J9Pcfo4qTEKgWs_4wT55-5" value="" style="rounded=0;whiteSpace=wrap;html=1;fontStyle=1;fillColor=#dae8fc;strokeColor=#6c8ebf;gradientColor=#7ea6e0;" parent="1" vertex="1">
          <mxGeometry x="1080" y="0.5" width="680" height="700" as="geometry" />
        </mxCell>
        <mxCell id="J9Pcfo4qTEKgWs_4wT55-6" value="" style="ellipse;whiteSpace=wrap;html=1;aspect=fixed;fillColor=none;" parent="1" vertex="1">
          <mxGeometry x="-160" y="-240" width="760" height="760" as="geometry" />
        </mxCell>
        <mxCell id="J9Pcfo4qTEKgWs_4wT55-7" value="身体（服务器）" style="points=[[0,0],[0.25,0],[0.5,0],[0.75,0],[1,0],[1,0.25],[1,0.5],[1,0.75],[1,1],[0.75,1],[0.5,1],[0.25,1],[0,1],[0,0.75],[0,0.5],[0,0.25]];outlineConnect=0;gradientColor=none;html=1;whiteSpace=wrap;fontSize=12;fontStyle=0;shape=mxgraph.aws4.group;grIcon=mxgraph.aws4.group_on_premise;strokeColor=#5A6C86;fillColor=none;verticalAlign=top;align=left;spacingLeft=30;fontColor=#5A6C86;dashed=0;" parent="1" vertex="1">
          <mxGeometry x="155" y="80" width="130" height="360" as="geometry" />
        </mxCell>
        <mxCell id="J9Pcfo4qTEKgWs_4wT55-8" style="edgeStyle=orthogonalEdgeStyle;rounded=0;orthogonalLoop=1;jettySize=auto;html=1;" parent="1" source="J9Pcfo4qTEKgWs_4wT55-9" target="J9Pcfo4qTEKgWs_4wT55-11" edge="1">
          <mxGeometry relative="1" as="geometry" />
        </mxCell>
        <mxCell id="J9Pcfo4qTEKgWs_4wT55-9" value="祖先（Master）" style="verticalLabelPosition=bottom;html=1;fillColor=#282828;strokeColor=none;verticalAlign=top;pointerEvents=1;align=center;shape=mxgraph.cisco_safe.people_places_things_icons.icon1;" parent="1" vertex="1">
          <mxGeometry x="196.75" y="-160" width="46.5" height="50" as="geometry" />
        </mxCell>
        <mxCell id="J9Pcfo4qTEKgWs_4wT55-10" style="edgeStyle=orthogonalEdgeStyle;rounded=0;orthogonalLoop=1;jettySize=auto;html=1;" parent="1" source="J9Pcfo4qTEKgWs_4wT55-11" target="J9Pcfo4qTEKgWs_4wT55-7" edge="1">
          <mxGeometry relative="1" as="geometry" />
        </mxCell>
        <mxCell id="J9Pcfo4qTEKgWs_4wT55-11" value="父母（Branch）" style="verticalLabelPosition=bottom;html=1;fillColor=#282828;strokeColor=none;verticalAlign=top;pointerEvents=1;align=center;shape=mxgraph.cisco_safe.people_places_things_icons.icon2;" parent="1" vertex="1">
          <mxGeometry x="195" y="-40" width="50" height="41" as="geometry" />
        </mxCell>
        <mxCell id="J9Pcfo4qTEKgWs_4wT55-12" value="思考建模" style="edgeStyle=orthogonalEdgeStyle;rounded=0;orthogonalLoop=1;jettySize=auto;html=1;" parent="1" source="J9Pcfo4qTEKgWs_4wT55-13" target="J9Pcfo4qTEKgWs_4wT55-21" edge="1">
          <mxGeometry x="0.4667" relative="1" as="geometry">
            <Array as="points">
              <mxPoint x="220" y="210" />
              <mxPoint x="220" y="210" />
            </Array>
            <mxPoint as="offset" />
          </mxGeometry>
        </mxCell>
        <mxCell id="J9Pcfo4qTEKgWs_4wT55-13" value="基因（源码）" style="shape=image;html=1;verticalAlign=top;verticalLabelPosition=bottom;labelBackgroundColor=#ffffff;imageAspect=0;aspect=fixed;image=https://cdn4.iconfinder.com/data/icons/crime-and-security-24/64/27-128.png;fillColor=none;" parent="1" vertex="1">
          <mxGeometry x="192.5" y="110" width="55" height="55" as="geometry" />
        </mxCell>
        <mxCell id="J9Pcfo4qTEKgWs_4wT55-14" value="" style="endArrow=classic;html=1;entryX=0;entryY=0.5;entryDx=0;entryDy=0;exitX=0;exitY=0.5;exitDx=0;exitDy=0;" parent="1" source="J9Pcfo4qTEKgWs_4wT55-6" target="J9Pcfo4qTEKgWs_4wT55-13" edge="1">
          <mxGeometry relative="1" as="geometry">
            <mxPoint x="-20" y="144.5" as="sourcePoint" />
            <mxPoint x="110" y="144.5" as="targetPoint" />
          </mxGeometry>
        </mxCell>
        <mxCell id="J9Pcfo4qTEKgWs_4wT55-15" value="" style="shape=message;html=1;outlineConnect=0;" parent="J9Pcfo4qTEKgWs_4wT55-14" vertex="1">
          <mxGeometry width="20" height="14" relative="1" as="geometry">
            <mxPoint x="-10" y="-7" as="offset" />
          </mxGeometry>
        </mxCell>
        <mxCell id="J9Pcfo4qTEKgWs_4wT55-16" value="世界信息" style="edgeLabel;html=1;align=center;verticalAlign=middle;resizable=0;points=[];" parent="J9Pcfo4qTEKgWs_4wT55-14" vertex="1" connectable="0">
          <mxGeometry x="0.4551" y="1" relative="1" as="geometry">
            <mxPoint as="offset" />
          </mxGeometry>
        </mxCell>
        <mxCell id="J9Pcfo4qTEKgWs_4wT55-17" value="" style="endArrow=classic;html=1;exitX=1;exitY=0.5;exitDx=0;exitDy=0;" parent="1" source="J9Pcfo4qTEKgWs_4wT55-6" target="J9Pcfo4qTEKgWs_4wT55-13" edge="1">
          <mxGeometry relative="1" as="geometry">
            <mxPoint x="340" y="140" as="sourcePoint" />
            <mxPoint x="545" y="140.5" as="targetPoint" />
          </mxGeometry>
        </mxCell>
        <mxCell id="J9Pcfo4qTEKgWs_4wT55-18" value="" style="shape=message;html=1;outlineConnect=0;" parent="J9Pcfo4qTEKgWs_4wT55-17" vertex="1">
          <mxGeometry width="20" height="14" relative="1" as="geometry">
            <mxPoint x="-10" y="-7" as="offset" />
          </mxGeometry>
        </mxCell>
        <mxCell id="J9Pcfo4qTEKgWs_4wT55-19" value="世界信息" style="edgeLabel;html=1;align=center;verticalAlign=middle;resizable=0;points=[];" parent="J9Pcfo4qTEKgWs_4wT55-17" vertex="1" connectable="0">
          <mxGeometry x="0.4261" relative="1" as="geometry">
            <mxPoint as="offset" />
          </mxGeometry>
        </mxCell>
        <mxCell id="J9Pcfo4qTEKgWs_4wT55-20" value="转化" style="edgeStyle=orthogonalEdgeStyle;rounded=0;orthogonalLoop=1;jettySize=auto;html=1;" parent="1" source="J9Pcfo4qTEKgWs_4wT55-21" target="J9Pcfo4qTEKgWs_4wT55-22" edge="1">
          <mxGeometry relative="1" as="geometry" />
        </mxCell>
        <mxCell id="J9Pcfo4qTEKgWs_4wT55-21" value="模型" style="verticalLabelPosition=bottom;html=1;fillColor=#282828;strokeColor=none;verticalAlign=top;pointerEvents=1;align=center;shape=mxgraph.cisco_safe.people_places_things_icons.icon8;" parent="1" vertex="1">
          <mxGeometry x="210.25" y="240" width="19.5" height="50" as="geometry" />
        </mxCell>
        <mxCell id="J9Pcfo4qTEKgWs_4wT55-22" value="记忆" style="pointerEvents=1;shadow=0;dashed=0;html=1;strokeColor=none;fillColor=#434445;aspect=fixed;labelPosition=center;verticalLabelPosition=bottom;verticalAlign=top;align=center;outlineConnect=0;shape=mxgraph.vvd.memory;" parent="1" vertex="1">
          <mxGeometry x="200" y="380" width="40" height="15.2" as="geometry" />
        </mxCell>
        <mxCell id="J9Pcfo4qTEKgWs_4wT55-23" value="老婆" style="rounded=0;whiteSpace=wrap;html=1;strokeColor=#9673a6;fontStyle=0;fillColor=#e1d5e7;" parent="1" vertex="1">
          <mxGeometry x="860" y="40" width="120" height="60" as="geometry" />
        </mxCell>
        <mxCell id="J9Pcfo4qTEKgWs_4wT55-24" value="" style="rounded=0;whiteSpace=wrap;html=1;fillColor=#d5e8d4;strokeColor=#82b366;fontStyle=1;" parent="1" vertex="1">
          <mxGeometry x="1360" y="220.5" width="360" height="440" as="geometry" />
        </mxCell>
        <mxCell id="J9Pcfo4qTEKgWs_4wT55-25" value="NBA" style="rounded=0;whiteSpace=wrap;html=1;fillColor=#d5e8d4;strokeColor=#82b366;fontStyle=0;" parent="1" vertex="1">
          <mxGeometry x="1560" y="260.5" width="120" height="60" as="geometry" />
        </mxCell>
        <mxCell id="J9Pcfo4qTEKgWs_4wT55-26" value="" style="rounded=0;whiteSpace=wrap;html=1;fillColor=#dae8fc;strokeColor=#6c8ebf;fontStyle=1;gradientColor=#7ea6e0;" parent="1" vertex="1">
          <mxGeometry x="1120" y="42.5" width="600" height="140" as="geometry" />
        </mxCell>
        <mxCell id="J9Pcfo4qTEKgWs_4wT55-27" style="edgeStyle=orthogonalEdgeStyle;rounded=0;orthogonalLoop=1;jettySize=auto;html=1;fontColor=#009900;fontStyle=1" parent="1" source="J9Pcfo4qTEKgWs_4wT55-28" target="J9Pcfo4qTEKgWs_4wT55-57" edge="1">
          <mxGeometry relative="1" as="geometry">
            <Array as="points">
              <mxPoint x="1225" y="200" />
              <mxPoint x="1225" y="200" />
            </Array>
          </mxGeometry>
        </mxCell>
        <mxCell id="J9Pcfo4qTEKgWs_4wT55-28" value="感知需求&lt;br&gt;自我实现" style="rounded=0;whiteSpace=wrap;html=1;fillColor=#dae8fc;strokeColor=#6c8ebf;fontStyle=1;gradientColor=#7ea6e0;" parent="1" vertex="1">
          <mxGeometry x="1165" y="82.5" width="120" height="60" as="geometry" />
        </mxCell>
        <mxCell id="J9Pcfo4qTEKgWs_4wT55-29" value="" style="rounded=0;whiteSpace=wrap;html=1;fillColor=#eeeeee;strokeColor=#36393d;fontStyle=1;" parent="1" vertex="1">
          <mxGeometry x="1800" y="0.5" width="200" height="700" as="geometry" />
        </mxCell>
        <mxCell id="J9Pcfo4qTEKgWs_4wT55-30" value="七宝" style="rounded=0;whiteSpace=wrap;html=1;strokeColor=#9673a6;fontStyle=1;fillColor=#e1d5e7;fontSize=15;strokeWidth=3;" parent="1" vertex="1">
          <mxGeometry x="860" y="242" width="120" height="60" as="geometry" />
        </mxCell>
        <mxCell id="J9Pcfo4qTEKgWs_4wT55-31" value="七贝" style="rounded=0;whiteSpace=wrap;html=1;strokeColor=#9673a6;fontStyle=1;fillColor=#e1d5e7;fontSize=15;strokeWidth=3;" parent="1" vertex="1">
          <mxGeometry x="860" y="322" width="120" height="60" as="geometry" />
        </mxCell>
        <mxCell id="J9Pcfo4qTEKgWs_4wT55-32" value="父母" style="rounded=0;whiteSpace=wrap;html=1;strokeColor=#9673a6;fontStyle=0;fillColor=#e1d5e7;" parent="1" vertex="1">
          <mxGeometry x="860" y="488.5" width="120" height="60" as="geometry" />
        </mxCell>
        <mxCell id="J9Pcfo4qTEKgWs_4wT55-33" value="岳父母" style="rounded=0;whiteSpace=wrap;html=1;strokeColor=#9673a6;fontStyle=0;fillColor=#e1d5e7;" parent="1" vertex="1">
          <mxGeometry x="860" y="568.5" width="120" height="60" as="geometry" />
        </mxCell>
        <mxCell id="J9Pcfo4qTEKgWs_4wT55-34" value="亲戚" style="rounded=0;whiteSpace=wrap;html=1;fontStyle=0;fillColor=#eeeeee;strokeColor=#36393d;" parent="1" vertex="1">
          <mxGeometry x="1840" y="418.5" width="120" height="60" as="geometry" />
        </mxCell>
        <mxCell id="J9Pcfo4qTEKgWs_4wT55-35" value="朋友" style="rounded=0;whiteSpace=wrap;html=1;fontStyle=0;fillColor=#eeeeee;strokeColor=#36393d;" parent="1" vertex="1">
          <mxGeometry x="1840" y="103" width="120" height="60" as="geometry" />
        </mxCell>
        <mxCell id="J9Pcfo4qTEKgWs_4wT55-36" value="偶像" style="rounded=0;whiteSpace=wrap;html=1;fontStyle=0;fillColor=#eeeeee;strokeColor=#36393d;" parent="1" vertex="1">
          <mxGeometry x="1840" y="259.5" width="120" height="60" as="geometry" />
        </mxCell>
        <mxCell id="J9Pcfo4qTEKgWs_4wT55-37" value="" style="rounded=0;whiteSpace=wrap;html=1;fillColor=#eeeeee;strokeColor=#36393d;fontStyle=1;" parent="1" vertex="1">
          <mxGeometry x="800" y="740" width="1200" height="140" as="geometry" />
        </mxCell>
        <mxCell id="J9Pcfo4qTEKgWs_4wT55-38" style="edgeStyle=orthogonalEdgeStyle;rounded=0;orthogonalLoop=1;jettySize=auto;html=1;fontStyle=1;fontColor=#FFFFFF;" parent="1" source="J9Pcfo4qTEKgWs_4wT55-40" target="J9Pcfo4qTEKgWs_4wT55-53" edge="1">
          <mxGeometry relative="1" as="geometry" />
        </mxCell>
        <mxCell id="J9Pcfo4qTEKgWs_4wT55-39" style="edgeStyle=orthogonalEdgeStyle;rounded=0;orthogonalLoop=1;jettySize=auto;html=1;fontSize=15;" parent="1" source="J9Pcfo4qTEKgWs_4wT55-40" target="J9Pcfo4qTEKgWs_4wT55-1" edge="1">
          <mxGeometry relative="1" as="geometry">
            <Array as="points">
              <mxPoint x="1260" y="920" />
              <mxPoint x="1260" y="920" />
            </Array>
          </mxGeometry>
        </mxCell>
        <mxCell id="J9Pcfo4qTEKgWs_4wT55-40" value="金钱 / 投资" style="rounded=0;whiteSpace=wrap;html=1;fontStyle=0;fillColor=#eeeeee;strokeColor=#36393d;" parent="1" vertex="1">
          <mxGeometry x="1200" y="780" width="120" height="60" as="geometry" />
        </mxCell>
        <mxCell id="J9Pcfo4qTEKgWs_4wT55-41" style="edgeStyle=orthogonalEdgeStyle;rounded=0;orthogonalLoop=1;jettySize=auto;html=1;fontStyle=1" parent="1" source="J9Pcfo4qTEKgWs_4wT55-42" target="J9Pcfo4qTEKgWs_4wT55-64" edge="1">
          <mxGeometry relative="1" as="geometry">
            <mxPoint x="1420" y="-10" as="targetPoint" />
            <Array as="points">
              <mxPoint x="1420" y="-20" />
              <mxPoint x="1420" y="-20" />
            </Array>
          </mxGeometry>
        </mxCell>
        <mxCell id="J9Pcfo4qTEKgWs_4wT55-42" value="&lt;span style=&quot;&quot;&gt;健康 / 自律&lt;/span&gt;&lt;br&gt;积极生活 / 仪式感" style="rounded=0;whiteSpace=wrap;html=1;strokeColor=#6c8ebf;fontStyle=1;labelBackgroundColor=none;fillColor=#dae8fc;gradientColor=#7ea6e0;fontColor=#00CC00;" parent="1" vertex="1">
          <mxGeometry x="1360" y="82.5" width="120" height="60" as="geometry" />
        </mxCell>
        <mxCell id="J9Pcfo4qTEKgWs_4wT55-43" style="edgeStyle=orthogonalEdgeStyle;rounded=0;orthogonalLoop=1;jettySize=auto;html=1;fontStyle=1;fontColor=#FFFFFF;" parent="1" source="J9Pcfo4qTEKgWs_4wT55-45" target="J9Pcfo4qTEKgWs_4wT55-40" edge="1">
          <mxGeometry relative="1" as="geometry" />
        </mxCell>
        <mxCell id="J9Pcfo4qTEKgWs_4wT55-44" style="edgeStyle=orthogonalEdgeStyle;rounded=0;orthogonalLoop=1;jettySize=auto;html=1;fontSize=15;" parent="1" source="J9Pcfo4qTEKgWs_4wT55-45" target="J9Pcfo4qTEKgWs_4wT55-76" edge="1">
          <mxGeometry relative="1" as="geometry">
            <Array as="points">
              <mxPoint x="1540" y="910" />
              <mxPoint x="1540" y="910" />
            </Array>
          </mxGeometry>
        </mxCell>
        <mxCell id="J9Pcfo4qTEKgWs_4wT55-45" value="工作" style="rounded=0;whiteSpace=wrap;html=1;fontStyle=0;fillColor=#ffcd28;strokeColor=#d79b00;gradientColor=#ffa500;" parent="1" vertex="1">
          <mxGeometry x="1480" y="780" width="120" height="60" as="geometry" />
        </mxCell>
        <mxCell id="J9Pcfo4qTEKgWs_4wT55-46" value="游戏" style="rounded=0;whiteSpace=wrap;html=1;fillColor=#d5e8d4;strokeColor=#82b366;fontStyle=1;fontColor=#00CC00;" parent="1" vertex="1">
          <mxGeometry x="1400" y="260.5" width="120" height="60" as="geometry" />
        </mxCell>
        <mxCell id="J9Pcfo4qTEKgWs_4wT55-47" value="小说" style="rounded=0;whiteSpace=wrap;html=1;fillColor=#d5e8d4;strokeColor=#82b366;fontStyle=1;horizontal=1;fontSize=15;" parent="1" vertex="1">
          <mxGeometry x="1400" y="461" width="120" height="60" as="geometry" />
        </mxCell>
        <mxCell id="J9Pcfo4qTEKgWs_4wT55-48" value="动漫" style="rounded=0;whiteSpace=wrap;html=1;fillColor=#d5e8d4;strokeColor=#82b366;fontStyle=1;fontSize=15;strokeWidth=3;" parent="1" vertex="1">
          <mxGeometry x="1400" y="361" width="120" height="60" as="geometry" />
        </mxCell>
        <mxCell id="J9Pcfo4qTEKgWs_4wT55-49" value="电影" style="rounded=0;whiteSpace=wrap;html=1;fillColor=#d5e8d4;strokeColor=#82b366;fontStyle=1;fontSize=15;strokeWidth=3;" parent="1" vertex="1">
          <mxGeometry x="1400" y="560.5" width="120" height="60" as="geometry" />
        </mxCell>
        <mxCell id="J9Pcfo4qTEKgWs_4wT55-50" value="音乐" style="rounded=0;whiteSpace=wrap;html=1;fillColor=#d5e8d4;strokeColor=#82b366;fontStyle=0;" parent="1" vertex="1">
          <mxGeometry x="1560" y="361" width="120" height="60" as="geometry" />
        </mxCell>
        <mxCell id="J9Pcfo4qTEKgWs_4wT55-51" value="水草" style="rounded=0;whiteSpace=wrap;html=1;fillColor=#d5e8d4;strokeColor=#82b366;fontStyle=0;" parent="1" vertex="1">
          <mxGeometry x="1560" y="460.5" width="120" height="60" as="geometry" />
        </mxCell>
        <mxCell id="J9Pcfo4qTEKgWs_4wT55-52" value="收藏" style="rounded=0;whiteSpace=wrap;html=1;fillColor=#d5e8d4;strokeColor=#82b366;fontStyle=0;" parent="1" vertex="1">
          <mxGeometry x="1560" y="560.5" width="120" height="60" as="geometry" />
        </mxCell>
        <mxCell id="J9Pcfo4qTEKgWs_4wT55-53" value="房子" style="rounded=0;whiteSpace=wrap;html=1;fontStyle=0;fillColor=#eeeeee;strokeColor=#36393d;" parent="1" vertex="1">
          <mxGeometry x="920" y="779.9999999999999" width="120" height="60" as="geometry" />
        </mxCell>
        <mxCell id="J9Pcfo4qTEKgWs_4wT55-54" style="edgeStyle=orthogonalEdgeStyle;rounded=0;orthogonalLoop=1;jettySize=auto;html=1;fontStyle=1" parent="1" source="J9Pcfo4qTEKgWs_4wT55-56" target="J9Pcfo4qTEKgWs_4wT55-24" edge="1">
          <mxGeometry relative="1" as="geometry">
            <Array as="points">
              <mxPoint x="1620" y="210" />
              <mxPoint x="1620" y="210" />
            </Array>
          </mxGeometry>
        </mxCell>
        <mxCell id="J9Pcfo4qTEKgWs_4wT55-55" style="edgeStyle=orthogonalEdgeStyle;rounded=0;orthogonalLoop=1;jettySize=auto;html=1;fontSize=12;fontColor=#808080;" parent="1" source="J9Pcfo4qTEKgWs_4wT55-56" target="J9Pcfo4qTEKgWs_4wT55-64" edge="1">
          <mxGeometry relative="1" as="geometry">
            <Array as="points">
              <mxPoint x="1620" />
              <mxPoint x="1620" />
            </Array>
          </mxGeometry>
        </mxCell>
        <mxCell id="J9Pcfo4qTEKgWs_4wT55-56" value="感知需求" style="rounded=0;whiteSpace=wrap;html=1;fillColor=#dae8fc;strokeColor=#6c8ebf;fontStyle=1;gradientColor=#7ea6e0;" parent="1" vertex="1">
          <mxGeometry x="1560" y="82.5" width="120" height="60" as="geometry" />
        </mxCell>
        <mxCell id="J9Pcfo4qTEKgWs_4wT55-57" value="" style="rounded=0;whiteSpace=wrap;html=1;fillColor=#cce5ff;strokeColor=#36393d;fontStyle=1;" parent="1" vertex="1">
          <mxGeometry x="1120" y="221.5" width="200" height="439" as="geometry" />
        </mxCell>
        <mxCell id="J9Pcfo4qTEKgWs_4wT55-58" value="技术 / 项目" style="rounded=0;whiteSpace=wrap;html=1;fillColor=#cce5ff;strokeColor=#36393d;fontStyle=0;fontColor=#FFB570;" parent="1" vertex="1">
          <mxGeometry x="1165" y="261.5" width="120" height="60" as="geometry" />
        </mxCell>
        <mxCell id="J9Pcfo4qTEKgWs_4wT55-59" value="物理" style="rounded=0;whiteSpace=wrap;html=1;fillColor=#cce5ff;strokeColor=#36393d;fontStyle=0;" parent="1" vertex="1">
          <mxGeometry x="1165" y="560.5" width="120" height="60" as="geometry" />
        </mxCell>
        <mxCell id="J9Pcfo4qTEKgWs_4wT55-60" value="室内设计" style="rounded=0;whiteSpace=wrap;html=1;fillColor=#cce5ff;strokeColor=#36393d;fontStyle=0;fontColor=#00CC66;" parent="1" vertex="1">
          <mxGeometry x="1165" y="460.5" width="120" height="60" as="geometry" />
        </mxCell>
        <mxCell id="J9Pcfo4qTEKgWs_4wT55-61" style="edgeStyle=orthogonalEdgeStyle;rounded=0;orthogonalLoop=1;jettySize=auto;html=1;fontStyle=1" parent="1" source="J9Pcfo4qTEKgWs_4wT55-62" target="J9Pcfo4qTEKgWs_4wT55-45" edge="1">
          <mxGeometry relative="1" as="geometry" />
        </mxCell>
        <mxCell id="J9Pcfo4qTEKgWs_4wT55-62" value="英语" style="rounded=0;whiteSpace=wrap;html=1;fontStyle=0;fillColor=#eeeeee;strokeColor=#36393d;" parent="1" vertex="1">
          <mxGeometry x="1760" y="780" width="120" height="60" as="geometry" />
        </mxCell>
        <mxCell id="J9Pcfo4qTEKgWs_4wT55-63" value="写作" style="rounded=0;whiteSpace=wrap;html=1;fillColor=#cce5ff;strokeColor=#36393d;fontStyle=0;fontColor=#00CC66;" parent="1" vertex="1">
          <mxGeometry x="1165" y="361" width="120" height="60" as="geometry" />
        </mxCell>
        <mxCell id="J9Pcfo4qTEKgWs_4wT55-64" value="" style="rounded=0;whiteSpace=wrap;html=1;strokeColor=#9673a6;fontStyle=1;fillColor=#e1d5e7;" parent="1" vertex="1">
          <mxGeometry x="800" y="-180" width="1200" height="140" as="geometry" />
        </mxCell>
        <mxCell id="J9Pcfo4qTEKgWs_4wT55-65" value="旅游" style="rounded=0;whiteSpace=wrap;html=1;strokeColor=#9673a6;fontStyle=0;fillColor=#e1d5e7;" parent="1" vertex="1">
          <mxGeometry x="960" y="-140" width="120" height="60" as="geometry" />
        </mxCell>
        <mxCell id="J9Pcfo4qTEKgWs_4wT55-66" style="edgeStyle=orthogonalEdgeStyle;rounded=0;orthogonalLoop=1;jettySize=auto;html=1;fontColor=#00CC00;fontStyle=1" parent="1" source="J9Pcfo4qTEKgWs_4wT55-67" target="J9Pcfo4qTEKgWs_4wT55-69" edge="1">
          <mxGeometry relative="1" as="geometry">
            <Array as="points">
              <mxPoint x="1260" y="-170" />
              <mxPoint x="1260" y="-170" />
            </Array>
          </mxGeometry>
        </mxCell>
        <mxCell id="J9Pcfo4qTEKgWs_4wT55-67" value="活动" style="rounded=0;whiteSpace=wrap;html=1;strokeColor=#9673a6;fontStyle=0;fillColor=#e1d5e7;" parent="1" vertex="1">
          <mxGeometry x="1200" y="-140" width="120" height="60" as="geometry" />
        </mxCell>
        <mxCell id="J9Pcfo4qTEKgWs_4wT55-68" value="厨艺" style="rounded=0;whiteSpace=wrap;html=1;strokeColor=#9673a6;fontStyle=0;fillColor=#e1d5e7;" parent="1" vertex="1">
          <mxGeometry x="1440" y="-140" width="120" height="60" as="geometry" />
        </mxCell>
        <mxCell id="J9Pcfo4qTEKgWs_4wT55-69" value="" style="rounded=0;whiteSpace=wrap;html=1;strokeColor=#9673a6;fontStyle=1;fillColor=#e1d5e7;" parent="1" vertex="1">
          <mxGeometry x="800" y="-360" width="1200" height="140" as="geometry" />
        </mxCell>
        <mxCell id="J9Pcfo4qTEKgWs_4wT55-70" value="公园 / 放风筝 / 露营" style="rounded=0;whiteSpace=wrap;html=1;strokeColor=#9673a6;fontStyle=0;fillColor=#e1d5e7;" parent="1" vertex="1">
          <mxGeometry x="880" y="-320" width="120" height="60" as="geometry" />
        </mxCell>
        <mxCell id="J9Pcfo4qTEKgWs_4wT55-71" value="钓鱼 / 网鱼 / 钓龙虾" style="rounded=0;whiteSpace=wrap;html=1;strokeColor=#9673a6;fontStyle=0;fillColor=#e1d5e7;" parent="1" vertex="1">
          <mxGeometry x="1080" y="-320" width="120" height="60" as="geometry" />
        </mxCell>
        <mxCell id="J9Pcfo4qTEKgWs_4wT55-72" value="搭积木 / 手工" style="rounded=0;whiteSpace=wrap;html=1;strokeColor=#9673a6;fontStyle=1;fillColor=#e1d5e7;strokeWidth=3;" parent="1" vertex="1">
          <mxGeometry x="1280" y="-320" width="120" height="60" as="geometry" />
        </mxCell>
        <mxCell id="J9Pcfo4qTEKgWs_4wT55-73" value="下馆子 / 看电影" style="rounded=0;whiteSpace=wrap;html=1;strokeColor=#9673a6;fontStyle=1;fillColor=#e1d5e7;strokeWidth=3;" parent="1" vertex="1">
          <mxGeometry x="1480" y="-320" width="120" height="60" as="geometry" />
        </mxCell>
        <mxCell id="J9Pcfo4qTEKgWs_4wT55-74" value="走亲访友" style="rounded=0;whiteSpace=wrap;html=1;strokeColor=#9673a6;fontStyle=0;fillColor=#e1d5e7;" parent="1" vertex="1">
          <mxGeometry x="1680" y="-320" width="120" height="60" as="geometry" />
        </mxCell>
        <mxCell id="J9Pcfo4qTEKgWs_4wT55-75" value="篮球" style="rounded=0;whiteSpace=wrap;html=1;strokeColor=#9673a6;fontStyle=0;fillColor=#e1d5e7;" parent="1" vertex="1">
          <mxGeometry x="1680" y="-140" width="120" height="60" as="geometry" />
        </mxCell>
        <mxCell id="J9Pcfo4qTEKgWs_4wT55-76" value="" style="rounded=0;whiteSpace=wrap;html=1;strokeColor=#9673a6;fontStyle=1;fillColor=#e1d5e7;" parent="1" vertex="1">
          <mxGeometry x="1440" y="920" width="560" height="240" as="geometry" />
        </mxCell>
        <mxCell id="J9Pcfo4qTEKgWs_4wT55-77" style="edgeStyle=orthogonalEdgeStyle;rounded=0;orthogonalLoop=1;jettySize=auto;html=1;" parent="1" source="J9Pcfo4qTEKgWs_4wT55-78" target="J9Pcfo4qTEKgWs_4wT55-86" edge="1">
          <mxGeometry relative="1" as="geometry" />
        </mxCell>
        <mxCell id="J9Pcfo4qTEKgWs_4wT55-78" value="项目Owner" style="rounded=0;whiteSpace=wrap;html=1;strokeColor=#9673a6;fontStyle=0;fillColor=#e1d5e7;" parent="1" vertex="1">
          <mxGeometry x="1480" y="960" width="120" height="60" as="geometry" />
        </mxCell>
        <mxCell id="J9Pcfo4qTEKgWs_4wT55-79" style="edgeStyle=orthogonalEdgeStyle;rounded=0;orthogonalLoop=1;jettySize=auto;html=1;" parent="1" source="J9Pcfo4qTEKgWs_4wT55-80" target="J9Pcfo4qTEKgWs_4wT55-78" edge="1">
          <mxGeometry relative="1" as="geometry" />
        </mxCell>
        <mxCell id="J9Pcfo4qTEKgWs_4wT55-80" value="技术设计" style="rounded=0;whiteSpace=wrap;html=1;strokeColor=#9673a6;fontStyle=0;fillColor=#e1d5e7;" parent="1" vertex="1">
          <mxGeometry x="1740" y="960" width="120" height="60" as="geometry" />
        </mxCell>
        <mxCell id="J9Pcfo4qTEKgWs_4wT55-81" style="edgeStyle=orthogonalEdgeStyle;rounded=0;orthogonalLoop=1;jettySize=auto;html=1;" parent="1" source="J9Pcfo4qTEKgWs_4wT55-82" target="J9Pcfo4qTEKgWs_4wT55-78" edge="1">
          <mxGeometry relative="1" as="geometry" />
        </mxCell>
        <mxCell id="J9Pcfo4qTEKgWs_4wT55-82" value="良性生态" style="rounded=0;whiteSpace=wrap;html=1;strokeColor=#9673a6;fontStyle=0;fillColor=#e1d5e7;" parent="1" vertex="1">
          <mxGeometry x="1480" y="1070" width="120" height="60" as="geometry" />
        </mxCell>
        <mxCell id="J9Pcfo4qTEKgWs_4wT55-83" value="快乐工作&lt;br&gt;自主时间" style="rounded=0;whiteSpace=wrap;html=1;strokeColor=#9673a6;fontStyle=0;fillColor=#e1d5e7;" parent="1" vertex="1">
          <mxGeometry x="1740" y="1070" width="120" height="60" as="geometry" />
        </mxCell>
        <mxCell id="J9Pcfo4qTEKgWs_4wT55-84" value="向上管理&lt;br&gt;表面文章&lt;br&gt;流畅沟通" style="rounded=0;whiteSpace=wrap;html=1;strokeColor=#9673a6;fontStyle=0;fillColor=#e1d5e7;" parent="1" vertex="1">
          <mxGeometry x="880" y="960" width="120" height="60" as="geometry" />
        </mxCell>
        <mxCell id="J9Pcfo4qTEKgWs_4wT55-85" value="面试 / 技术 / 职位" style="rounded=0;whiteSpace=wrap;html=1;strokeColor=#9673a6;fontStyle=0;fillColor=#e1d5e7;" parent="1" vertex="1">
          <mxGeometry x="880" y="1070" width="120" height="60" as="geometry" />
        </mxCell>
        <mxCell id="J9Pcfo4qTEKgWs_4wT55-86" value="项目推进&lt;br&gt;需求受理&lt;br&gt;业务沟通" style="rounded=0;whiteSpace=wrap;html=1;strokeColor=#9673a6;fontStyle=0;fillColor=#e1d5e7;" parent="1" vertex="1">
          <mxGeometry x="1190" y="960" width="120" height="60" as="geometry" />
        </mxCell>
        <mxCell id="J9Pcfo4qTEKgWs_4wT55-87" value="" style="rounded=0;whiteSpace=wrap;html=1;strokeColor=#9673a6;fontStyle=0;fillColor=#e1d5e7;" parent="1" vertex="1">
          <mxGeometry x="1190" y="1070" width="120" height="60" as="geometry" />
        </mxCell>
        <mxCell id="J9Pcfo4qTEKgWs_4wT55-88" value="情" style="rounded=0;whiteSpace=wrap;html=1;strokeColor=#9673a6;fontStyle=0;fillColor=#e1d5e7;" parent="1" vertex="1">
          <mxGeometry x="830" y="120" width="80" height="40" as="geometry" />
        </mxCell>
        <mxCell id="J9Pcfo4qTEKgWs_4wT55-89" value="爱" style="rounded=0;whiteSpace=wrap;html=1;strokeColor=#9673a6;fontStyle=0;fillColor=#e1d5e7;" parent="1" vertex="1">
          <mxGeometry x="930" y="120" width="80" height="40" as="geometry" />
        </mxCell>
        <mxCell id="J9Pcfo4qTEKgWs_4wT55-90" value="" style="shape=image;html=1;verticalAlign=top;verticalLabelPosition=bottom;labelBackgroundColor=#ffffff;imageAspect=0;aspect=fixed;image=https://cdn2.iconfinder.com/data/icons/bitsies/128/Heart-128.png" parent="1" vertex="1">
          <mxGeometry x="280" y="680" width="240" height="240" as="geometry" />
        </mxCell>
        <mxCell id="J9Pcfo4qTEKgWs_4wT55-91" value="" style="shape=cylinder3;whiteSpace=wrap;html=1;boundedLbl=1;backgroundOutline=1;size=15;" parent="1" vertex="1">
          <mxGeometry x="-80" y="680" width="80" height="240" as="geometry" />
        </mxCell>
        <mxCell id="J9Pcfo4qTEKgWs_4wT55-92" value="" style="shape=image;html=1;verticalAlign=top;verticalLabelPosition=bottom;labelBackgroundColor=#ffffff;imageAspect=0;aspect=fixed;image=https://cdn2.iconfinder.com/data/icons/bitsies/128/Heart-128.png;fillColor=#007FFF;strokeWidth=1;" parent="1" vertex="1">
          <mxGeometry x="40" y="680" width="240" height="240" as="geometry" />
        </mxCell>
        <mxCell id="J9Pcfo4qTEKgWs_4wT55-93" value="" style="shape=image;html=1;verticalAlign=top;verticalLabelPosition=bottom;labelBackgroundColor=#ffffff;imageAspect=0;aspect=fixed;image=https://cdn4.iconfinder.com/data/icons/twitter-29/512/166_Heart_Love_Like_Twitter-128.png" parent="1" vertex="1">
          <mxGeometry x="360" y="640" width="40" height="40" as="geometry" />
        </mxCell>
        <mxCell id="J9Pcfo4qTEKgWs_4wT55-94" value="" style="shape=image;html=1;verticalAlign=top;verticalLabelPosition=bottom;labelBackgroundColor=#ffffff;imageAspect=0;aspect=fixed;image=https://cdn4.iconfinder.com/data/icons/twitter-29/512/166_Heart_Love_Like_Twitter-128.png" parent="1" vertex="1">
          <mxGeometry x="400" y="640" width="40" height="40" as="geometry" />
        </mxCell>
        <mxCell id="J9Pcfo4qTEKgWs_4wT55-95" value="" style="endArrow=none;html=1;" parent="1" edge="1">
          <mxGeometry width="50" height="50" relative="1" as="geometry">
            <mxPoint x="400" y="730" as="sourcePoint" />
            <mxPoint x="400" y="900" as="targetPoint" />
          </mxGeometry>
        </mxCell>
        <mxCell id="J9Pcfo4qTEKgWs_4wT55-96" value="" style="endArrow=none;html=1;" parent="1" edge="1">
          <mxGeometry width="50" height="50" relative="1" as="geometry">
            <mxPoint x="159.5" y="730" as="sourcePoint" />
            <mxPoint x="159.5" y="900" as="targetPoint" />
          </mxGeometry>
        </mxCell>
        <mxCell id="J9Pcfo4qTEKgWs_4wT55-97" value="" style="shape=image;html=1;verticalAlign=top;verticalLabelPosition=bottom;labelBackgroundColor=#ffffff;imageAspect=0;aspect=fixed;image=https://cdn1.iconfinder.com/data/icons/father-s-day-doodles/32/father_son_day_holding-128.png" parent="1" vertex="1">
          <mxGeometry x="410" y="740" width="71" height="71" as="geometry" />
        </mxCell>
        <mxCell id="J9Pcfo4qTEKgWs_4wT55-98" value="" style="shape=image;html=1;verticalAlign=top;verticalLabelPosition=bottom;labelBackgroundColor=#ffffff;imageAspect=0;aspect=fixed;image=https://cdn1.iconfinder.com/data/icons/father-s-day-doodles/32/father_son_day_holding-128.png" parent="1" vertex="1">
          <mxGeometry x="80" y="740" width="71" height="71" as="geometry" />
        </mxCell>
        <mxCell id="J9Pcfo4qTEKgWs_4wT55-99" value="" style="shape=cylinder3;whiteSpace=wrap;html=1;boundedLbl=1;backgroundOutline=1;size=15;fillColor=#007FFF;" parent="1" vertex="1">
          <mxGeometry x="85.5" y="920" width="60" height="120" as="geometry" />
        </mxCell>
        <mxCell id="J9Pcfo4qTEKgWs_4wT55-100" value="" style="shape=cylinder3;whiteSpace=wrap;html=1;boundedLbl=1;backgroundOutline=1;size=15;fillColor=#FF3333;" parent="1" vertex="1">
          <mxGeometry x="327.5" y="715.5" width="60" height="120" as="geometry" />
        </mxCell>
        <mxCell id="J9Pcfo4qTEKgWs_4wT55-101" value="1. Live&lt;br&gt;2. Sex&lt;br&gt;3. Money&lt;br&gt;4. Talk" style="text;html=1;align=center;verticalAlign=middle;resizable=0;points=[];autosize=1;strokeColor=none;" parent="1" vertex="1">
          <mxGeometry x="247.5" y="840" width="60" height="60" as="geometry" />
        </mxCell>
        <mxCell id="J9Pcfo4qTEKgWs_4wT55-102" value="" style="triangle;whiteSpace=wrap;html=1;fontColor=#000000;direction=north;" parent="1" vertex="1">
          <mxGeometry x="-1280" y="-239.5" width="720" height="600.5" as="geometry" />
        </mxCell>
        <mxCell id="J9Pcfo4qTEKgWs_4wT55-103" value="" style="endArrow=none;html=1;fontColor=#000000;entryX=0.134;entryY=0.936;entryDx=0;entryDy=0;entryPerimeter=0;" parent="1" target="J9Pcfo4qTEKgWs_4wT55-102" edge="1">
          <mxGeometry width="50" height="50" relative="1" as="geometry">
            <mxPoint x="-1234" y="280.5" as="sourcePoint" />
            <mxPoint x="-650" y="321.5" as="targetPoint" />
            <Array as="points" />
          </mxGeometry>
        </mxCell>
        <mxCell id="J9Pcfo4qTEKgWs_4wT55-104" value="生体需求 / 病态需求" style="text;html=1;strokeColor=none;fillColor=none;align=center;verticalAlign=middle;whiteSpace=wrap;rounded=0;fontColor=#000000;fontSize=15;fontStyle=1" parent="1" vertex="1">
          <mxGeometry x="-991.87" y="290" width="150" height="20" as="geometry" />
        </mxCell>
        <mxCell id="J9Pcfo4qTEKgWs_4wT55-105" value="" style="endArrow=none;html=1;fontColor=#000000;exitX=0.124;exitY=0.064;exitDx=0;exitDy=0;exitPerimeter=0;" parent="1" edge="1">
          <mxGeometry width="50" height="50" relative="1" as="geometry">
            <mxPoint x="-1185" y="202.02800000000025" as="sourcePoint" />
            <mxPoint x="-655" y="200.75" as="targetPoint" />
            <Array as="points" />
          </mxGeometry>
        </mxCell>
        <mxCell id="J9Pcfo4qTEKgWs_4wT55-106" value="" style="endArrow=none;html=1;fontColor=#000000;" parent="1" edge="1">
          <mxGeometry width="50" height="50" relative="1" as="geometry">
            <mxPoint x="-1135" y="120.5" as="sourcePoint" />
            <mxPoint x="-705" y="120.5" as="targetPoint" />
            <Array as="points" />
          </mxGeometry>
        </mxCell>
        <mxCell id="J9Pcfo4qTEKgWs_4wT55-107" value="" style="endArrow=none;html=1;fontColor=#000000;" parent="1" edge="1">
          <mxGeometry width="50" height="50" relative="1" as="geometry">
            <mxPoint x="-1090" y="40.5" as="sourcePoint" />
            <mxPoint x="-750" y="40.5" as="targetPoint" />
            <Array as="points" />
          </mxGeometry>
        </mxCell>
        <mxCell id="J9Pcfo4qTEKgWs_4wT55-108" value="" style="endArrow=none;html=1;fontColor=#000000;" parent="1" edge="1">
          <mxGeometry width="50" height="50" relative="1" as="geometry">
            <mxPoint x="-1040" y="-39.5" as="sourcePoint" />
            <mxPoint x="-800" y="-39.5" as="targetPoint" />
            <Array as="points" />
          </mxGeometry>
        </mxCell>
        <mxCell id="J9Pcfo4qTEKgWs_4wT55-109" value="" style="endArrow=none;html=1;fontColor=#000000;" parent="1" edge="1">
          <mxGeometry width="50" height="50" relative="1" as="geometry">
            <mxPoint x="-990" y="-118.5" as="sourcePoint" />
            <mxPoint x="-850" y="-118.5" as="targetPoint" />
            <Array as="points" />
          </mxGeometry>
        </mxCell>
        <mxCell id="J9Pcfo4qTEKgWs_4wT55-110" value="摄取、释放" style="text;html=1;strokeColor=none;fillColor=none;align=center;verticalAlign=middle;whiteSpace=wrap;rounded=0;fontColor=#808080;" parent="1" vertex="1">
          <mxGeometry x="-1042.5" y="317.5" width="240" height="20" as="geometry" />
        </mxCell>
        <mxCell id="J9Pcfo4qTEKgWs_4wT55-111" value="安全需求" style="text;html=1;strokeColor=none;fillColor=none;align=center;verticalAlign=middle;whiteSpace=wrap;rounded=0;fontColor=#000000;fontSize=15;fontStyle=1" parent="1" vertex="1">
          <mxGeometry x="-962.5" y="220.5" width="80" height="20" as="geometry" />
        </mxCell>
        <mxCell id="J9Pcfo4qTEKgWs_4wT55-112" value="安抚：恐惧、焦虑、空虚" style="text;html=1;strokeColor=none;fillColor=none;align=center;verticalAlign=middle;whiteSpace=wrap;rounded=0;fontColor=#808080;" parent="1" vertex="1">
          <mxGeometry x="-1017.5" y="244.5" width="190" height="20" as="geometry" />
        </mxCell>
        <mxCell id="J9Pcfo4qTEKgWs_4wT55-113" value="社交需求 / 心魔需求" style="text;html=1;strokeColor=none;fillColor=none;align=center;verticalAlign=middle;whiteSpace=wrap;rounded=0;fontColor=#000000;fontSize=15;fontStyle=1" parent="1" vertex="1">
          <mxGeometry x="-997.5" y="131" width="160" height="20" as="geometry" />
        </mxCell>
        <mxCell id="J9Pcfo4qTEKgWs_4wT55-114" value="需要、被需要" style="text;html=1;strokeColor=none;fillColor=none;align=center;verticalAlign=middle;whiteSpace=wrap;rounded=0;fontColor=#808080;" parent="1" vertex="1">
          <mxGeometry x="-965" y="159.43" width="90" height="20" as="geometry" />
        </mxCell>
        <mxCell id="J9Pcfo4qTEKgWs_4wT55-115" value="被需要是被动不可控的，带来心理满足感和幸福感&lt;br&gt;被需要和被索取要区分，被需要是能力和意愿范围内的" style="text;html=1;strokeColor=none;fillColor=none;align=center;verticalAlign=middle;whiteSpace=wrap;rounded=0;fontColor=#808080;" parent="1" vertex="1">
          <mxGeometry x="-1688.12" y="30.75" width="216.25" height="60" as="geometry" />
        </mxCell>
        <mxCell id="J9Pcfo4qTEKgWs_4wT55-116" value="尊严、认可、权利、名誉" style="text;html=1;strokeColor=none;fillColor=none;align=center;verticalAlign=middle;whiteSpace=wrap;rounded=0;fontColor=#808080;" parent="1" vertex="1">
          <mxGeometry x="-1040" y="90.5" width="245" height="20" as="geometry" />
        </mxCell>
        <mxCell id="J9Pcfo4qTEKgWs_4wT55-117" value="社会需求" style="text;html=1;strokeColor=none;fillColor=none;align=center;verticalAlign=middle;whiteSpace=wrap;rounded=0;fontColor=#000000;fontSize=15;fontStyle=1" parent="1" vertex="1">
          <mxGeometry x="-960" y="60.5" width="80" height="20" as="geometry" />
        </mxCell>
        <mxCell id="J9Pcfo4qTEKgWs_4wT55-118" value="感知需求 - 感受当下" style="text;html=1;strokeColor=none;fillColor=none;align=center;verticalAlign=middle;whiteSpace=wrap;rounded=0;fontColor=#000000;fontSize=15;fontStyle=1" parent="1" vertex="1">
          <mxGeometry x="-991.87" y="-20" width="152.5" height="20" as="geometry" />
        </mxCell>
        <mxCell id="J9Pcfo4qTEKgWs_4wT55-119" value="求知、审美、享受、快乐、刺激" style="text;html=1;strokeColor=none;fillColor=none;align=center;verticalAlign=middle;whiteSpace=wrap;rounded=0;fontColor=#808080;" parent="1" vertex="1">
          <mxGeometry x="-1039.37" y="10.75" width="245" height="20" as="geometry" />
        </mxCell>
        <mxCell id="J9Pcfo4qTEKgWs_4wT55-120" value="自我实现 - 憧憬未来" style="text;html=1;strokeColor=none;fillColor=none;align=center;verticalAlign=middle;whiteSpace=wrap;rounded=0;fontColor=#000000;fontSize=15;fontStyle=1" parent="1" vertex="1">
          <mxGeometry x="-995.62" y="-99.5" width="160" height="20" as="geometry" />
        </mxCell>
        <mxCell id="J9Pcfo4qTEKgWs_4wT55-121" value="感悟、创作、提升、完善、传承" style="text;html=1;strokeColor=none;fillColor=none;align=center;verticalAlign=middle;whiteSpace=wrap;rounded=0;fontColor=#808080;" parent="1" vertex="1">
          <mxGeometry x="-1042.5" y="-69.5" width="245" height="20" as="geometry" />
        </mxCell>
        <mxCell id="J9Pcfo4qTEKgWs_4wT55-122" value="超我需求" style="text;html=1;strokeColor=none;fillColor=none;align=center;verticalAlign=middle;whiteSpace=wrap;rounded=0;fontColor=#000000;fontSize=15;fontStyle=1" parent="1" vertex="1">
          <mxGeometry x="-960" y="-159.5" width="80" height="20" as="geometry" />
        </mxCell>
        <mxCell id="J9Pcfo4qTEKgWs_4wT55-123" value="&lt;font color=&quot;#000000&quot;&gt;&lt;b&gt;生理需求&lt;/b&gt;&lt;/font&gt;" style="strokeWidth=2;html=1;shape=mxgraph.flowchart.annotation_2;align=left;labelPosition=right;pointerEvents=1;fontSize=15;fontColor=#808080;direction=west;" parent="1" vertex="1">
          <mxGeometry x="-560" y="160.5" width="50" height="160" as="geometry" />
        </mxCell>
        <mxCell id="J9Pcfo4qTEKgWs_4wT55-124" value="&lt;font color=&quot;#000000&quot;&gt;&lt;b&gt;自我需求&lt;/b&gt;&lt;/font&gt;" style="strokeWidth=2;html=1;shape=mxgraph.flowchart.annotation_2;align=left;labelPosition=right;pointerEvents=1;fontSize=15;fontColor=#808080;direction=west;" parent="1" vertex="1">
          <mxGeometry x="-720" y="-79.5" width="50" height="160" as="geometry" />
        </mxCell>
        <mxCell id="J9Pcfo4qTEKgWs_4wT55-125" value="生理需求必须被满足，否则不存在生命的意义。" style="text;html=1;strokeColor=none;fillColor=none;align=center;verticalAlign=middle;whiteSpace=wrap;rounded=0;fontColor=#808080;" parent="1" vertex="1">
          <mxGeometry x="-510" y="250.5" width="140" height="56" as="geometry" />
        </mxCell>
        <mxCell id="J9Pcfo4qTEKgWs_4wT55-126" value="心魔需求是阻断向上寻找生命意义的泥沼，不能陷入太深，也不能完全摒弃" style="text;html=1;strokeColor=none;fillColor=none;align=center;verticalAlign=middle;whiteSpace=wrap;rounded=0;fontColor=#808080;" parent="1" vertex="1">
          <mxGeometry x="-1270" y="50.5" width="140" height="56" as="geometry" />
        </mxCell>
        <mxCell id="J9Pcfo4qTEKgWs_4wT55-127" value="生命的意义在于感受世界" style="text;html=1;strokeColor=none;fillColor=none;align=center;verticalAlign=middle;whiteSpace=wrap;rounded=0;fontColor=#808080;" parent="1" vertex="1">
          <mxGeometry x="-1220" y="-27.5" width="140" height="56" as="geometry" />
        </mxCell>
        <mxCell id="J9Pcfo4qTEKgWs_4wT55-128" value="生命的意义在于自我完善" style="text;html=1;strokeColor=none;fillColor=none;align=center;verticalAlign=middle;whiteSpace=wrap;rounded=0;fontColor=#808080;" parent="1" vertex="1">
          <mxGeometry x="-1170" y="-105.5" width="140" height="56" as="geometry" />
        </mxCell>
        <mxCell id="J9Pcfo4qTEKgWs_4wT55-129" value="爱情是是一种被需要的重要获取，伴随着占有欲，这种占有欲往往强烈到需要占有他人的整个金字塔" style="text;html=1;strokeColor=none;fillColor=none;align=center;verticalAlign=middle;whiteSpace=wrap;rounded=0;fontColor=#808080;" parent="1" vertex="1">
          <mxGeometry x="-679" y="90.5" width="140" height="56" as="geometry" />
        </mxCell>
        <mxCell id="J9Pcfo4qTEKgWs_4wT55-130" value="需要、被需要" style="text;html=1;fillColor=none;align=center;verticalAlign=middle;whiteSpace=wrap;rounded=0;fontColor=#808080;labelBorderColor=none;labelBackgroundColor=none;strokeColor=#000000;dashed=1;" parent="1" vertex="1">
          <mxGeometry x="-1800" y="100.11999999999989" width="120" height="39.75" as="geometry" />
        </mxCell>
        <mxCell id="J9Pcfo4qTEKgWs_4wT55-131" value="需要、被需要" style="text;html=1;align=center;verticalAlign=middle;whiteSpace=wrap;rounded=0;fontColor=#808080;strokeColor=#000000;dashed=1;" parent="1" vertex="1">
          <mxGeometry x="-1640" y="100.11999999999989" width="120" height="39.75" as="geometry" />
        </mxCell>
        <mxCell id="J9Pcfo4qTEKgWs_4wT55-132" value="" style="shape=doubleArrow;whiteSpace=wrap;html=1;fontSize=15;fontColor=#808080;" parent="1" vertex="1">
          <mxGeometry x="-1674" y="111.86999999999989" width="30" height="18" as="geometry" />
        </mxCell>
        <mxCell id="J9Pcfo4qTEKgWs_4wT55-133" value="相爱" style="text;html=1;fillColor=none;align=center;verticalAlign=middle;whiteSpace=wrap;rounded=0;fontColor=#808080;strokeColor=#000000;dashed=1;" parent="1" vertex="1">
          <mxGeometry x="-1480" y="101" width="40" height="39.75" as="geometry" />
        </mxCell>
        <mxCell id="J9Pcfo4qTEKgWs_4wT55-134" value="需要、不被需要" style="text;html=1;fillColor=none;align=center;verticalAlign=middle;whiteSpace=wrap;rounded=0;fontColor=#808080;labelBorderColor=none;labelBackgroundColor=none;strokeColor=#000000;dashed=1;fontSize=12;fontStyle=0" parent="1" vertex="1">
          <mxGeometry x="-1800" y="150.1199999999999" width="120" height="39.75" as="geometry" />
        </mxCell>
        <mxCell id="J9Pcfo4qTEKgWs_4wT55-135" value="被需要" style="text;html=1;align=center;verticalAlign=middle;whiteSpace=wrap;rounded=0;fontColor=#808080;strokeColor=#000000;dashed=1;" parent="1" vertex="1">
          <mxGeometry x="-1640" y="150.1199999999999" width="120" height="39.75" as="geometry" />
        </mxCell>
        <mxCell id="J9Pcfo4qTEKgWs_4wT55-136" value="" style="shape=singleArrow;whiteSpace=wrap;html=1;labelBackgroundColor=none;fontSize=12;fontColor=#808080;strokeColor=#000000;fillColor=none;" parent="1" vertex="1">
          <mxGeometry x="-1675" y="160.55999999999995" width="32" height="18.87" as="geometry" />
        </mxCell>
        <mxCell id="J9Pcfo4qTEKgWs_4wT55-137" value="&lt;font style=&quot;font-size: 12px;&quot;&gt;需要、不被需要&lt;/font&gt;" style="text;html=1;fillColor=none;align=center;verticalAlign=middle;whiteSpace=wrap;rounded=0;fontColor=#808080;labelBorderColor=none;labelBackgroundColor=none;strokeColor=#000000;dashed=1;fontSize=12;fontStyle=0" parent="1" vertex="1">
          <mxGeometry x="-1800" y="199.8699999999999" width="120" height="39.75" as="geometry" />
        </mxCell>
        <mxCell id="J9Pcfo4qTEKgWs_4wT55-138" value="意愿之外" style="text;html=1;align=center;verticalAlign=middle;whiteSpace=wrap;rounded=0;fontColor=#808080;strokeColor=#000000;dashed=1;" parent="1" vertex="1">
          <mxGeometry x="-1640" y="199.8699999999999" width="120" height="39.75" as="geometry" />
        </mxCell>
        <mxCell id="J9Pcfo4qTEKgWs_4wT55-139" value="" style="shape=singleArrow;whiteSpace=wrap;html=1;labelBackgroundColor=none;fontSize=12;fontColor=#808080;strokeColor=#000000;fillColor=none;" parent="1" vertex="1">
          <mxGeometry x="-1675" y="210.30999999999995" width="32" height="18.87" as="geometry" />
        </mxCell>
        <mxCell id="J9Pcfo4qTEKgWs_4wT55-140" value="相爱" style="text;html=1;fillColor=none;align=center;verticalAlign=middle;whiteSpace=wrap;rounded=0;fontColor=#808080;strokeColor=#000000;dashed=1;" parent="1" vertex="1">
          <mxGeometry x="-1440" y="101" width="40" height="39.75" as="geometry" />
        </mxCell>
        <mxCell id="J9Pcfo4qTEKgWs_4wT55-141" value="契合" style="text;html=1;fillColor=none;align=center;verticalAlign=middle;whiteSpace=wrap;rounded=0;fontColor=#808080;strokeColor=#000000;dashed=1;" parent="1" vertex="1">
          <mxGeometry x="-1400" y="100.11999999999989" width="40" height="39.75" as="geometry" />
        </mxCell>
        <mxCell id="J9Pcfo4qTEKgWs_4wT55-142" value="契合" style="text;html=1;fillColor=none;align=center;verticalAlign=middle;whiteSpace=wrap;rounded=0;fontColor=#808080;strokeColor=#000000;dashed=1;" parent="1" vertex="1">
          <mxGeometry x="-1360" y="100.11999999999989" width="40" height="39.75" as="geometry" />
        </mxCell>
        <mxCell id="J9Pcfo4qTEKgWs_4wT55-143" value="添狗" style="text;html=1;fillColor=none;align=center;verticalAlign=middle;whiteSpace=wrap;rounded=0;fontColor=#808080;strokeColor=#000000;dashed=1;" parent="1" vertex="1">
          <mxGeometry x="-1480" y="151" width="40" height="39.75" as="geometry" />
        </mxCell>
        <mxCell id="J9Pcfo4qTEKgWs_4wT55-144" value="海王" style="text;html=1;fillColor=none;align=center;verticalAlign=middle;whiteSpace=wrap;rounded=0;fontColor=#808080;strokeColor=#000000;dashed=1;" parent="1" vertex="1">
          <mxGeometry x="-1440" y="151" width="40" height="39.75" as="geometry" />
        </mxCell>
        <mxCell id="J9Pcfo4qTEKgWs_4wT55-145" value="被爱" style="text;html=1;fillColor=none;align=center;verticalAlign=middle;whiteSpace=wrap;rounded=0;fontColor=#808080;strokeColor=#000000;dashed=1;" parent="1" vertex="1">
          <mxGeometry x="-1400" y="150.1199999999999" width="40" height="39.75" as="geometry" />
        </mxCell>
        <mxCell id="J9Pcfo4qTEKgWs_4wT55-146" value="被爱" style="text;html=1;fillColor=none;align=center;verticalAlign=middle;whiteSpace=wrap;rounded=0;fontColor=#808080;strokeColor=#000000;dashed=1;" parent="1" vertex="1">
          <mxGeometry x="-1360" y="150.1199999999999" width="40" height="39.75" as="geometry" />
        </mxCell>
        <mxCell id="J9Pcfo4qTEKgWs_4wT55-147" value="单恋" style="text;html=1;fillColor=none;align=center;verticalAlign=middle;whiteSpace=wrap;rounded=0;fontColor=#808080;strokeColor=#000000;dashed=1;" parent="1" vertex="1">
          <mxGeometry x="-1480" y="200.75" width="40" height="39.75" as="geometry" />
        </mxCell>
        <mxCell id="J9Pcfo4qTEKgWs_4wT55-148" value="拒绝" style="text;html=1;fillColor=none;align=center;verticalAlign=middle;whiteSpace=wrap;rounded=0;fontColor=#808080;strokeColor=#000000;dashed=1;" parent="1" vertex="1">
          <mxGeometry x="-1440" y="200.75" width="40" height="39.75" as="geometry" />
        </mxCell>
        <mxCell id="J9Pcfo4qTEKgWs_4wT55-149" value="不满" style="text;html=1;fillColor=none;align=center;verticalAlign=middle;whiteSpace=wrap;rounded=0;fontColor=#808080;strokeColor=#000000;dashed=1;" parent="1" vertex="1">
          <mxGeometry x="-1400" y="199.8699999999999" width="40" height="39.75" as="geometry" />
        </mxCell>
        <mxCell id="J9Pcfo4qTEKgWs_4wT55-150" value="&lt;span&gt;拒绝&lt;/span&gt;" style="text;html=1;fillColor=none;align=center;verticalAlign=middle;whiteSpace=wrap;rounded=0;fontColor=#808080;strokeColor=#000000;dashed=1;" parent="1" vertex="1">
          <mxGeometry x="-1360" y="199.8699999999999" width="40" height="39.75" as="geometry" />
        </mxCell>
        <mxCell id="J9Pcfo4qTEKgWs_4wT55-151" value="" style="strokeWidth=2;html=1;shape=mxgraph.flowchart.annotation_2;align=left;labelPosition=right;pointerEvents=1;labelBackgroundColor=none;fontSize=12;fontColor=#808080;fillColor=none;direction=west;" parent="1" vertex="1">
          <mxGeometry x="-1290" y="120.5" width="120" height="100" as="geometry" />
        </mxCell>
        <mxCell id="J9Pcfo4qTEKgWs_4wT55-152" value="工作" style="rounded=0;whiteSpace=wrap;html=1;labelBackgroundColor=none;fontSize=18;strokeColor=#10739e;fillColor=#b1ddf0;fontStyle=1;" parent="1" vertex="1">
          <mxGeometry x="-1640" y="960" width="1280" height="80" as="geometry" />
        </mxCell>
        <mxCell id="J9Pcfo4qTEKgWs_4wT55-153" value="占有欲、控制欲、征服欲" style="text;html=1;strokeColor=none;fillColor=none;align=center;verticalAlign=middle;whiteSpace=wrap;rounded=0;fontColor=#808080;" parent="1" vertex="1">
          <mxGeometry x="-1039.37" y="179.43" width="245" height="20" as="geometry" />
        </mxCell>
        <mxCell id="J9Pcfo4qTEKgWs_4wT55-154" value="非健康生体需求" style="text;html=1;strokeColor=none;fillColor=none;align=center;verticalAlign=middle;whiteSpace=wrap;rounded=0;fontColor=#808080;" parent="1" vertex="1">
          <mxGeometry x="-1040" y="338.5" width="240" height="20" as="geometry" />
        </mxCell>
        <mxCell id="J9Pcfo4qTEKgWs_4wT55-155" value="" style="rounded=0;whiteSpace=wrap;html=1;labelBackgroundColor=none;fontSize=18;strokeColor=#b46504;fillColor=#fad7ac;" parent="1" vertex="1">
          <mxGeometry x="-1640" y="860" width="360" height="60" as="geometry" />
        </mxCell>
        <mxCell id="J9Pcfo4qTEKgWs_4wT55-156" value="" style="rounded=0;whiteSpace=wrap;html=1;labelBackgroundColor=none;fontSize=18;fontColor=#000000;strokeColor=#000000;fillColor=none;" parent="1" vertex="1">
          <mxGeometry x="-1200" y="860" width="400" height="60" as="geometry" />
        </mxCell>
        <mxCell id="J9Pcfo4qTEKgWs_4wT55-157" value="&lt;span&gt;自我实现&lt;/span&gt;" style="rounded=0;whiteSpace=wrap;html=1;labelBackgroundColor=none;fontSize=18;strokeColor=#9673a6;fillColor=#e1d5e7;" parent="1" vertex="1">
          <mxGeometry x="-760" y="860" width="400" height="60" as="geometry" />
        </mxCell>
        <mxCell id="J9Pcfo4qTEKgWs_4wT55-158" value="生理需求" style="text;html=1;strokeColor=none;fillColor=none;align=center;verticalAlign=middle;whiteSpace=wrap;rounded=0;labelBackgroundColor=none;fontSize=18;fontColor=#000000;" parent="1" vertex="1">
          <mxGeometry x="-1471.87" y="880" width="110" height="20" as="geometry" />
        </mxCell>
        <mxCell id="J9Pcfo4qTEKgWs_4wT55-159" value="" style="rounded=0;whiteSpace=wrap;html=1;labelBackgroundColor=none;fontSize=18;strokeColor=#b46504;fillColor=#fad7ac;" parent="1" vertex="1">
          <mxGeometry x="-1200" y="860" width="200" height="60" as="geometry" />
        </mxCell>
        <mxCell id="J9Pcfo4qTEKgWs_4wT55-160" value="" style="shape=image;html=1;verticalAlign=top;verticalLabelPosition=bottom;labelBackgroundColor=#ffffff;imageAspect=0;aspect=fixed;image=https://cdn0.iconfinder.com/data/icons/finance-4-6/512/finance-money-dollar-06-128.png;fontSize=18;fontColor=#000000;strokeColor=#000000;fillColor=none;" parent="1" vertex="1">
          <mxGeometry x="-1540" y="870.25" width="39.5" height="39.5" as="geometry" />
        </mxCell>
        <mxCell id="J9Pcfo4qTEKgWs_4wT55-161" value="" style="shape=image;html=1;verticalAlign=top;verticalLabelPosition=bottom;labelBackgroundColor=#ffffff;imageAspect=0;aspect=fixed;image=https://cdn0.iconfinder.com/data/icons/finance-4-6/512/finance-money-dollar-06-128.png;fontSize=18;fontColor=#000000;strokeColor=#000000;fillColor=none;" parent="1" vertex="1">
          <mxGeometry x="-1119.75" y="870.25" width="39.5" height="39.5" as="geometry" />
        </mxCell>
        <mxCell id="J9Pcfo4qTEKgWs_4wT55-162" value="&lt;span style=&quot;font-size: 15px ; font-weight: 700&quot;&gt;感受当下&lt;/span&gt;" style="rounded=0;whiteSpace=wrap;html=1;labelBackgroundColor=none;fontSize=18;strokeColor=#36393d;fillColor=#cdeb8b;" parent="1" vertex="1">
          <mxGeometry x="-1000" y="860" width="200" height="60" as="geometry" />
        </mxCell>
        <mxCell id="J9Pcfo4qTEKgWs_4wT55-163" value="感知需求" style="text;html=1;strokeColor=none;fillColor=none;align=center;verticalAlign=middle;whiteSpace=wrap;rounded=0;labelBackgroundColor=none;fontSize=18;fontColor=#000000;" parent="1" vertex="1">
          <mxGeometry x="-1055" y="880" width="110" height="20" as="geometry" />
        </mxCell>
        <mxCell id="J9Pcfo4qTEKgWs_4wT55-164" value="&lt;span style=&quot;font-size: 15px ; font-weight: 700&quot;&gt;感受当下&lt;/span&gt;" style="rounded=0;whiteSpace=wrap;html=1;labelBackgroundColor=none;fontSize=18;strokeColor=#9673a6;fillColor=#e1d5e7;" parent="1" vertex="1">
          <mxGeometry x="-560" y="800" width="200" height="40" as="geometry" />
        </mxCell>
        <mxCell id="J9Pcfo4qTEKgWs_4wT55-165" value="" style="rounded=0;whiteSpace=wrap;html=1;labelBackgroundColor=none;fontSize=18;strokeColor=#9673a6;fillColor=#e1d5e7;" parent="1" vertex="1">
          <mxGeometry x="-760" y="800" width="160" height="40" as="geometry" />
        </mxCell>
        <mxCell id="J9Pcfo4qTEKgWs_4wT55-166" value="" style="shape=image;html=1;verticalAlign=top;verticalLabelPosition=bottom;labelBackgroundColor=#ffffff;imageAspect=0;aspect=fixed;image=https://cdn0.iconfinder.com/data/icons/finance-4-6/512/finance-money-dollar-06-128.png;fontSize=18;fontColor=#000000;strokeColor=#000000;fillColor=none;" parent="1" vertex="1">
          <mxGeometry x="-690" y="800.25" width="39.5" height="39.5" as="geometry" />
        </mxCell>
        <mxCell id="J9Pcfo4qTEKgWs_4wT55-167" value="" style="strokeWidth=2;html=1;shape=mxgraph.flowchart.annotation_2;align=left;labelPosition=right;pointerEvents=1;fontSize=15;fontColor=#808080;direction=south;" parent="1" vertex="1">
          <mxGeometry x="-1640" y="795" width="640" height="50" as="geometry" />
        </mxCell>
        <mxCell id="J9Pcfo4qTEKgWs_4wT55-168" value="技术能力、产品知识、&lt;br&gt;面试技术、工作履历&lt;br&gt;沟通协调、管理能力" style="text;html=1;strokeColor=none;fillColor=none;align=center;verticalAlign=middle;whiteSpace=wrap;rounded=0;fontColor=#808080;fontSize=15;" parent="1" vertex="1">
          <mxGeometry x="-1480" y="710" width="320" height="70.5" as="geometry" />
        </mxCell>
        <mxCell id="J9Pcfo4qTEKgWs_4wT55-169" value="自我实现包括：完善项目、业务成功、改善乱局&lt;br&gt;完成自我实现更多要求：协调沟通、管理能力、手段&lt;br&gt;理想基础：一个健康有希望的业务、项目和团队、&lt;br&gt;或者尝试改善这个团队和项目" style="text;html=1;strokeColor=none;fillColor=none;align=center;verticalAlign=middle;whiteSpace=wrap;rounded=0;fontColor=#808080;fontSize=15;" parent="1" vertex="1">
          <mxGeometry x="-740" y="679.5" width="370" height="100.5" as="geometry" />
        </mxCell>
        <mxCell id="J9Pcfo4qTEKgWs_4wT55-170" value="技术、设计、产品&lt;br style=&quot;font-size: 15px;&quot;&gt;以及其他喜欢做的事情&lt;br style=&quot;font-size: 15px;&quot;&gt;工作时间" style="text;html=1;strokeColor=none;fillColor=none;align=center;verticalAlign=middle;whiteSpace=wrap;rounded=0;fontColor=#808080;fontSize=15;" parent="1" vertex="1">
          <mxGeometry x="-990" y="779.5" width="220" height="56" as="geometry" />
        </mxCell>
        <mxCell id="J9Pcfo4qTEKgWs_4wT55-171" value="当前状况" style="rounded=0;whiteSpace=wrap;html=1;labelBackgroundColor=none;fontSize=18;strokeColor=#b46504;fillColor=#fad7ac;" parent="1" vertex="1">
          <mxGeometry x="-1640" y="580" width="520" height="60" as="geometry" />
        </mxCell>
        <mxCell id="J9Pcfo4qTEKgWs_4wT55-172" value="" style="rounded=0;whiteSpace=wrap;html=1;labelBackgroundColor=none;fontSize=18;strokeColor=#36393d;fillColor=#cdeb8b;" parent="1" vertex="1">
          <mxGeometry x="-1080" y="580" width="480" height="60" as="geometry" />
        </mxCell>
        <mxCell id="J9Pcfo4qTEKgWs_4wT55-173" value="" style="rounded=0;whiteSpace=wrap;html=1;labelBackgroundColor=none;fontSize=18;strokeColor=#9673a6;fillColor=#e1d5e7;" parent="1" vertex="1">
          <mxGeometry x="-560" y="580" width="200" height="60" as="geometry" />
        </mxCell>
        <mxCell id="J9Pcfo4qTEKgWs_4wT55-174" value="&lt;span style=&quot;font-size: 18px&quot;&gt;当前状况&lt;/span&gt;" style="rounded=0;whiteSpace=wrap;html=1;labelBackgroundColor=none;fontSize=15;strokeColor=#6c8ebf;fillColor=#dae8fc;" parent="1" vertex="1">
          <mxGeometry x="-1080" y="520" width="720" height="40" as="geometry" />
        </mxCell>
        <mxCell id="J9Pcfo4qTEKgWs_4wT55-175" value="基因与大脑&lt;br&gt;基因是大脑的非自我意识&lt;br&gt;基因有没有自我意识和非自我意识&lt;br&gt;记忆和逻辑能力，大脑感知能力是大脑的自我意识&lt;br&gt;资本是人类社会的大脑&lt;br&gt;资本有没有自我意识和非自我意识&lt;br&gt;基因和资本都找到存在下去的方法，人类能找到吗&lt;br&gt;不是每个人都有能力去追求永生，但是人类应该去追求，每个人都需要出力&lt;br&gt;人类通过移植记忆逻辑能力感知能力到机器人得到永生&lt;br&gt;人类通过移植记忆到另一个大脑得到永生&lt;br&gt;人类有了永生能力后就会追求永生资源，人类会不会由于资源有限而无限害怕死亡，导致无限期焦虑&lt;br&gt;人类会不会在争夺资源的过程导致毁灭&lt;br&gt;人类会开始寻找无限资源的永生&lt;br&gt;人类找到类似无限资源的永生后会和基因抢夺资源，从而导致基因人的灭绝（机器永生）&lt;br&gt;人类找到类似无限资源的永生后会导致基因停滞不前，可能会由于不进化被淘汰（生物永生）&lt;br&gt;人类需要寻找进化永生。&lt;br&gt;个人在永生之前追求什么？天（基因）人合一？完全服务基因？道德和情感底线是什么。&lt;br&gt;我到底包不包括我的基因，我需要战胜基因吗，我离开了基因是不是就是舍弃了感知。&lt;br&gt;" style="text;html=1;strokeColor=none;fillColor=none;align=center;verticalAlign=middle;whiteSpace=wrap;rounded=0;" parent="1" vertex="1">
          <mxGeometry x="-60" y="-660" width="533.25" height="260" as="geometry" />
        </mxCell>
        <mxCell id="J9Pcfo4qTEKgWs_4wT55-176" style="edgeStyle=orthogonalEdgeStyle;rounded=0;orthogonalLoop=1;jettySize=auto;html=1;fontSize=7;" parent="1" source="J9Pcfo4qTEKgWs_4wT55-179" target="J9Pcfo4qTEKgWs_4wT55-198" edge="1">
          <mxGeometry relative="1" as="geometry" />
        </mxCell>
        <mxCell id="J9Pcfo4qTEKgWs_4wT55-177" style="edgeStyle=orthogonalEdgeStyle;rounded=0;orthogonalLoop=1;jettySize=auto;html=1;fontSize=7;" parent="1" source="J9Pcfo4qTEKgWs_4wT55-179" target="J9Pcfo4qTEKgWs_4wT55-183" edge="1">
          <mxGeometry relative="1" as="geometry">
            <Array as="points">
              <mxPoint x="3040" y="-240" />
              <mxPoint x="2680" y="-240" />
            </Array>
          </mxGeometry>
        </mxCell>
        <mxCell id="J9Pcfo4qTEKgWs_4wT55-178" style="edgeStyle=orthogonalEdgeStyle;rounded=0;orthogonalLoop=1;jettySize=auto;html=1;fontSize=7;" parent="1" source="J9Pcfo4qTEKgWs_4wT55-179" target="J9Pcfo4qTEKgWs_4wT55-189" edge="1">
          <mxGeometry relative="1" as="geometry">
            <Array as="points">
              <mxPoint x="3040" y="-240" />
              <mxPoint x="3400" y="-240" />
            </Array>
          </mxGeometry>
        </mxCell>
        <mxCell id="J9Pcfo4qTEKgWs_4wT55-179" value="Jude - 23&lt;br&gt;CEO" style="rounded=0;whiteSpace=wrap;html=1;fillColor=#cce5ff;strokeColor=#36393d;" parent="1" vertex="1">
          <mxGeometry x="2980" y="-360" width="120" height="60" as="geometry" />
        </mxCell>
        <mxCell id="J9Pcfo4qTEKgWs_4wT55-180" style="edgeStyle=orthogonalEdgeStyle;rounded=0;orthogonalLoop=1;jettySize=auto;html=1;fontSize=7;fillColor=#ffff88;strokeColor=#36393d;" parent="1" source="J9Pcfo4qTEKgWs_4wT55-183" target="J9Pcfo4qTEKgWs_4wT55-206" edge="1">
          <mxGeometry relative="1" as="geometry" />
        </mxCell>
        <mxCell id="J9Pcfo4qTEKgWs_4wT55-181" style="edgeStyle=orthogonalEdgeStyle;rounded=0;orthogonalLoop=1;jettySize=auto;html=1;fontSize=7;fillColor=#ffff88;strokeColor=#36393d;" parent="1" source="J9Pcfo4qTEKgWs_4wT55-183" target="J9Pcfo4qTEKgWs_4wT55-184" edge="1">
          <mxGeometry relative="1" as="geometry">
            <Array as="points">
              <mxPoint x="2680" y="-80" />
              <mxPoint x="2540" y="-80" />
            </Array>
          </mxGeometry>
        </mxCell>
        <mxCell id="J9Pcfo4qTEKgWs_4wT55-182" style="edgeStyle=orthogonalEdgeStyle;rounded=0;orthogonalLoop=1;jettySize=auto;html=1;fontSize=7;fillColor=#ffff88;strokeColor=#36393d;" parent="1" source="J9Pcfo4qTEKgWs_4wT55-183" target="J9Pcfo4qTEKgWs_4wT55-185" edge="1">
          <mxGeometry relative="1" as="geometry">
            <Array as="points">
              <mxPoint x="2680" y="-80" />
              <mxPoint x="2820" y="-80" />
            </Array>
          </mxGeometry>
        </mxCell>
        <mxCell id="J9Pcfo4qTEKgWs_4wT55-183" value="&lt;font style=&quot;font-size: 12px&quot;&gt;红青 - 3&lt;br&gt;&lt;font style=&quot;font-size: 12px&quot;&gt;COO&lt;/font&gt;&lt;/font&gt;" style="rounded=0;whiteSpace=wrap;html=1;fontSize=7;fillColor=#ffff88;strokeColor=#36393d;" parent="1" vertex="1">
          <mxGeometry x="2620" y="-160" width="120" height="60" as="geometry" />
        </mxCell>
        <mxCell id="J9Pcfo4qTEKgWs_4wT55-184" value="&lt;font style=&quot;font-size: 12px&quot;&gt;晓蓉&lt;br&gt;运营总监&lt;br&gt;&lt;/font&gt;" style="rounded=0;whiteSpace=wrap;html=1;fontSize=7;fillColor=#ffff88;strokeColor=#36393d;" parent="1" vertex="1">
          <mxGeometry x="2480" y="-39" width="120" height="60" as="geometry" />
        </mxCell>
        <mxCell id="J9Pcfo4qTEKgWs_4wT55-185" value="&lt;font style=&quot;font-size: 12px&quot;&gt;吴斌&lt;br&gt;市场总监&lt;br&gt;&lt;/font&gt;" style="rounded=0;whiteSpace=wrap;html=1;fontSize=7;fillColor=#ffff88;strokeColor=#36393d;" parent="1" vertex="1">
          <mxGeometry x="2760" y="-39.5" width="120" height="60" as="geometry" />
        </mxCell>
        <mxCell id="J9Pcfo4qTEKgWs_4wT55-186" style="edgeStyle=orthogonalEdgeStyle;rounded=0;orthogonalLoop=1;jettySize=auto;html=1;fontSize=7;fillColor=#fad9d5;strokeColor=#ae4132;" parent="1" source="J9Pcfo4qTEKgWs_4wT55-189" target="J9Pcfo4qTEKgWs_4wT55-190" edge="1">
          <mxGeometry relative="1" as="geometry">
            <Array as="points">
              <mxPoint x="3400" y="-80.5" />
              <mxPoint x="3260" y="-80.5" />
            </Array>
          </mxGeometry>
        </mxCell>
        <mxCell id="J9Pcfo4qTEKgWs_4wT55-187" style="edgeStyle=orthogonalEdgeStyle;rounded=0;orthogonalLoop=1;jettySize=auto;html=1;fontSize=7;fillColor=#fad9d5;strokeColor=#ae4132;" parent="1" source="J9Pcfo4qTEKgWs_4wT55-189" target="J9Pcfo4qTEKgWs_4wT55-191" edge="1">
          <mxGeometry relative="1" as="geometry" />
        </mxCell>
        <mxCell id="J9Pcfo4qTEKgWs_4wT55-188" style="edgeStyle=orthogonalEdgeStyle;rounded=0;orthogonalLoop=1;jettySize=auto;html=1;fontSize=7;fillColor=#fad9d5;strokeColor=#ae4132;" parent="1" source="J9Pcfo4qTEKgWs_4wT55-189" target="J9Pcfo4qTEKgWs_4wT55-192" edge="1">
          <mxGeometry relative="1" as="geometry">
            <Array as="points">
              <mxPoint x="3400" y="-80.5" />
              <mxPoint x="3540" y="-80.5" />
            </Array>
          </mxGeometry>
        </mxCell>
        <mxCell id="J9Pcfo4qTEKgWs_4wT55-189" value="阿宝 - 23&lt;br&gt;CFO" style="rounded=0;whiteSpace=wrap;html=1;fillColor=#fad9d5;strokeColor=#ae4132;" parent="1" vertex="1">
          <mxGeometry x="3340" y="-160" width="120" height="60" as="geometry" />
        </mxCell>
        <mxCell id="J9Pcfo4qTEKgWs_4wT55-190" value="陈梦颖&lt;br&gt;人事总监" style="rounded=0;whiteSpace=wrap;html=1;fillColor=#fad9d5;strokeColor=#ae4132;" parent="1" vertex="1">
          <mxGeometry x="3200" y="-39.5" width="120" height="60" as="geometry" />
        </mxCell>
        <mxCell id="J9Pcfo4qTEKgWs_4wT55-191" value="陈磊&lt;br&gt;行政总监" style="rounded=0;whiteSpace=wrap;html=1;fillColor=#fad9d5;strokeColor=#ae4132;" parent="1" vertex="1">
          <mxGeometry x="3340" y="-39.5" width="120" height="60" as="geometry" />
        </mxCell>
        <mxCell id="J9Pcfo4qTEKgWs_4wT55-192" value="赵辰&lt;br&gt;法务总监" style="rounded=0;whiteSpace=wrap;html=1;fillColor=#fad9d5;strokeColor=#ae4132;" parent="1" vertex="1">
          <mxGeometry x="3480" y="-40" width="120" height="60" as="geometry" />
        </mxCell>
        <mxCell id="J9Pcfo4qTEKgWs_4wT55-193" style="edgeStyle=orthogonalEdgeStyle;rounded=0;orthogonalLoop=1;jettySize=auto;html=1;fontSize=7;" parent="1" source="J9Pcfo4qTEKgWs_4wT55-198" target="J9Pcfo4qTEKgWs_4wT55-214" edge="1">
          <mxGeometry relative="1" as="geometry">
            <Array as="points">
              <mxPoint x="3040" y="60" />
              <mxPoint x="2680" y="60" />
            </Array>
          </mxGeometry>
        </mxCell>
        <mxCell id="J9Pcfo4qTEKgWs_4wT55-194" style="edgeStyle=orthogonalEdgeStyle;rounded=0;orthogonalLoop=1;jettySize=auto;html=1;fontSize=7;" parent="1" source="J9Pcfo4qTEKgWs_4wT55-198" target="J9Pcfo4qTEKgWs_4wT55-205" edge="1">
          <mxGeometry relative="1" as="geometry">
            <Array as="points">
              <mxPoint x="3040" y="60" />
              <mxPoint x="3400" y="60" />
            </Array>
          </mxGeometry>
        </mxCell>
        <mxCell id="J9Pcfo4qTEKgWs_4wT55-195" style="edgeStyle=orthogonalEdgeStyle;rounded=0;orthogonalLoop=1;jettySize=auto;html=1;fontSize=7;" parent="1" source="J9Pcfo4qTEKgWs_4wT55-198" target="J9Pcfo4qTEKgWs_4wT55-202" edge="1">
          <mxGeometry relative="1" as="geometry" />
        </mxCell>
        <mxCell id="J9Pcfo4qTEKgWs_4wT55-196" style="edgeStyle=orthogonalEdgeStyle;rounded=0;orthogonalLoop=1;jettySize=auto;html=1;fontSize=7;" parent="1" source="J9Pcfo4qTEKgWs_4wT55-202" target="J9Pcfo4qTEKgWs_4wT55-212" edge="1">
          <mxGeometry relative="1" as="geometry">
            <Array as="points">
              <mxPoint x="3040" y="200" />
              <mxPoint x="2880" y="200" />
            </Array>
          </mxGeometry>
        </mxCell>
        <mxCell id="J9Pcfo4qTEKgWs_4wT55-197" style="edgeStyle=orthogonalEdgeStyle;rounded=0;orthogonalLoop=1;jettySize=auto;html=1;fontSize=7;" parent="1" source="J9Pcfo4qTEKgWs_4wT55-202" target="J9Pcfo4qTEKgWs_4wT55-211" edge="1">
          <mxGeometry relative="1" as="geometry">
            <Array as="points">
              <mxPoint x="3040" y="200" />
              <mxPoint x="3180" y="200" />
            </Array>
          </mxGeometry>
        </mxCell>
        <mxCell id="J9Pcfo4qTEKgWs_4wT55-198" value="&lt;font style=&quot;font-size: 12px&quot;&gt;王强 - 3&lt;br&gt;&lt;font style=&quot;font-size: 12px&quot;&gt;CTO&lt;/font&gt;&lt;/font&gt;" style="rounded=0;whiteSpace=wrap;html=1;fontSize=7;fillColor=#cce5ff;strokeColor=#36393d;" parent="1" vertex="1">
          <mxGeometry x="2980" y="-160" width="120" height="60" as="geometry" />
        </mxCell>
        <mxCell id="J9Pcfo4qTEKgWs_4wT55-199" style="edgeStyle=orthogonalEdgeStyle;rounded=0;orthogonalLoop=1;jettySize=auto;html=1;fontSize=7;" parent="1" source="J9Pcfo4qTEKgWs_4wT55-202" target="J9Pcfo4qTEKgWs_4wT55-207" edge="1">
          <mxGeometry relative="1" as="geometry" />
        </mxCell>
        <mxCell id="J9Pcfo4qTEKgWs_4wT55-200" style="edgeStyle=orthogonalEdgeStyle;rounded=0;orthogonalLoop=1;jettySize=auto;html=1;fontSize=7;" parent="1" source="J9Pcfo4qTEKgWs_4wT55-202" target="J9Pcfo4qTEKgWs_4wT55-203" edge="1">
          <mxGeometry relative="1" as="geometry" />
        </mxCell>
        <mxCell id="J9Pcfo4qTEKgWs_4wT55-201" style="edgeStyle=orthogonalEdgeStyle;rounded=0;orthogonalLoop=1;jettySize=auto;html=1;fontSize=7;" parent="1" source="J9Pcfo4qTEKgWs_4wT55-202" target="J9Pcfo4qTEKgWs_4wT55-210" edge="1">
          <mxGeometry relative="1" as="geometry" />
        </mxCell>
        <mxCell id="J9Pcfo4qTEKgWs_4wT55-202" value="婧婧&lt;br&gt;后端技术总监" style="rounded=0;whiteSpace=wrap;html=1;fontSize=7;fillColor=#cce5ff;strokeColor=#36393d;" parent="1" vertex="1">
          <mxGeometry x="2980" y="120" width="120" height="60" as="geometry" />
        </mxCell>
        <mxCell id="J9Pcfo4qTEKgWs_4wT55-203" value="&lt;font style=&quot;font-size: 12px&quot;&gt;恰&lt;br&gt;架构师&lt;br&gt;&lt;/font&gt;" style="rounded=0;whiteSpace=wrap;html=1;fontSize=7;fillColor=#cce5ff;strokeColor=#36393d;" parent="1" vertex="1">
          <mxGeometry x="2800" y="120" width="120" height="60" as="geometry" />
        </mxCell>
        <mxCell id="J9Pcfo4qTEKgWs_4wT55-204" style="edgeStyle=orthogonalEdgeStyle;rounded=0;orthogonalLoop=1;jettySize=auto;html=1;fontSize=7;fillColor=#dae8fc;strokeColor=#6c8ebf;" parent="1" source="J9Pcfo4qTEKgWs_4wT55-205" target="J9Pcfo4qTEKgWs_4wT55-209" edge="1">
          <mxGeometry relative="1" as="geometry" />
        </mxCell>
        <mxCell id="J9Pcfo4qTEKgWs_4wT55-205" value="毅强&lt;br&gt;测试总监" style="rounded=0;whiteSpace=wrap;html=1;fontSize=7;fillColor=#dae8fc;strokeColor=#6c8ebf;" parent="1" vertex="1">
          <mxGeometry x="3340" y="120.5" width="120" height="60" as="geometry" />
        </mxCell>
        <mxCell id="J9Pcfo4qTEKgWs_4wT55-206" value="&lt;font style=&quot;font-size: 12px&quot;&gt;郁磊&lt;br&gt;客户总监&lt;br&gt;&lt;/font&gt;" style="rounded=0;whiteSpace=wrap;html=1;fontSize=7;fillColor=#ffff88;strokeColor=#36393d;" parent="1" vertex="1">
          <mxGeometry x="2620" y="-39.5" width="120" height="60" as="geometry" />
        </mxCell>
        <mxCell id="J9Pcfo4qTEKgWs_4wT55-207" value="青&lt;br&gt;&lt;span style=&quot;font-size: 12px&quot;&gt;架构师&lt;/span&gt;" style="rounded=0;whiteSpace=wrap;html=1;fontSize=7;fillColor=#cce5ff;strokeColor=#36393d;" parent="1" vertex="1">
          <mxGeometry x="2980" y="240" width="120" height="60" as="geometry" />
        </mxCell>
        <mxCell id="J9Pcfo4qTEKgWs_4wT55-208" value="鉴&lt;br&gt;首席前端" style="rounded=0;whiteSpace=wrap;html=1;fontSize=7;fillColor=#dae8fc;strokeColor=#6c8ebf;" parent="1" vertex="1">
          <mxGeometry x="2620" y="240.5" width="120" height="60" as="geometry" />
        </mxCell>
        <mxCell id="J9Pcfo4qTEKgWs_4wT55-209" value="妹&lt;br&gt;首席测试" style="rounded=0;whiteSpace=wrap;html=1;fontSize=7;fillColor=#dae8fc;strokeColor=#6c8ebf;" parent="1" vertex="1">
          <mxGeometry x="3340" y="240.5" width="120" height="60" as="geometry" />
        </mxCell>
        <mxCell id="J9Pcfo4qTEKgWs_4wT55-210" value="&lt;font style=&quot;font-size: 12px&quot;&gt;费&lt;br&gt;架构师&lt;br&gt;&lt;/font&gt;" style="rounded=0;whiteSpace=wrap;html=1;fontSize=7;fillColor=#cce5ff;strokeColor=#36393d;" parent="1" vertex="1">
          <mxGeometry x="3160" y="119.43" width="120" height="60" as="geometry" />
        </mxCell>
        <mxCell id="J9Pcfo4qTEKgWs_4wT55-211" value="&lt;font style=&quot;font-size: 12px&quot;&gt;星&lt;br&gt;架构师&lt;br&gt;&lt;/font&gt;" style="rounded=0;whiteSpace=wrap;html=1;fontSize=7;fillColor=#cce5ff;strokeColor=#36393d;" parent="1" vertex="1">
          <mxGeometry x="3140" y="239.99999999999994" width="120" height="60" as="geometry" />
        </mxCell>
        <mxCell id="J9Pcfo4qTEKgWs_4wT55-212" value="&lt;font style=&quot;font-size: 12px&quot;&gt;MO&lt;br&gt;架构师&lt;br&gt;&lt;/font&gt;" style="rounded=0;whiteSpace=wrap;html=1;fontSize=7;fillColor=#cce5ff;strokeColor=#36393d;" parent="1" vertex="1">
          <mxGeometry x="2820" y="240" width="120" height="60" as="geometry" />
        </mxCell>
        <mxCell id="J9Pcfo4qTEKgWs_4wT55-213" style="edgeStyle=orthogonalEdgeStyle;rounded=0;orthogonalLoop=1;jettySize=auto;html=1;fontSize=7;fillColor=#dae8fc;strokeColor=#6c8ebf;" parent="1" source="J9Pcfo4qTEKgWs_4wT55-214" target="J9Pcfo4qTEKgWs_4wT55-208" edge="1">
          <mxGeometry relative="1" as="geometry" />
        </mxCell>
        <mxCell id="J9Pcfo4qTEKgWs_4wT55-214" value="&lt;font style=&quot;font-size: 12px&quot;&gt;小权&lt;br&gt;前端技术总监&lt;br&gt;&lt;/font&gt;" style="rounded=0;whiteSpace=wrap;html=1;fontSize=7;fillColor=#dae8fc;strokeColor=#6c8ebf;" parent="1" vertex="1">
          <mxGeometry x="2620" y="120.5" width="120" height="60" as="geometry" />
        </mxCell>
        <mxCell id="J9Pcfo4qTEKgWs_4wT55-215" value="1000&lt;span style=&quot;white-space: pre&quot;&gt; &lt;/span&gt;0.5%&lt;span style=&quot;white-space: pre&quot;&gt; &lt;/span&gt;5&lt;span style=&quot;white-space: pre&quot;&gt; &lt;span style=&quot;white-space: pre&quot;&gt; &lt;/span&gt;&lt;/span&gt;1 channel&lt;span style=&quot;white-space: pre&quot;&gt;&lt;span style=&quot;white-space: pre&quot;&gt; &lt;/span&gt;网关&lt;span style=&quot;white-space: pre&quot;&gt; &lt;/span&gt;&lt;span style=&quot;white-space: pre&quot;&gt; &lt;/span&gt;2k&lt;span style=&quot;white-space: pre&quot;&gt; &lt;span style=&quot;white-space: pre&quot;&gt; &lt;/span&gt;&lt;/span&gt;0&lt;span style=&quot;white-space: pre&quot;&gt; &lt;span style=&quot;white-space: pre&quot;&gt; &lt;/span&gt;&lt;/span&gt;0&lt;/span&gt;&lt;br&gt;2000&lt;span style=&quot;white-space: pre&quot;&gt; &lt;/span&gt;1%&lt;span style=&quot;white-space: pre&quot;&gt; &lt;/span&gt;&lt;span style=&quot;white-space: pre&quot;&gt; &lt;/span&gt;20&lt;span style=&quot;white-space: pre&quot;&gt; &lt;span style=&quot;white-space: pre&quot;&gt; &lt;/span&gt;&lt;/span&gt;2 channel&lt;span style=&quot;white-space: pre&quot;&gt; &lt;/span&gt;收单&lt;span style=&quot;white-space: pre&quot;&gt; &lt;/span&gt;&lt;span style=&quot;white-space: pre&quot;&gt; &lt;/span&gt;8k&lt;span style=&quot;white-space: pre&quot;&gt; &lt;span style=&quot;white-space: pre&quot;&gt; &lt;/span&gt;&lt;/span&gt;0&lt;span style=&quot;white-space: pre&quot;&gt; &lt;span style=&quot;white-space: pre&quot;&gt; &lt;/span&gt;&lt;/span&gt;0&lt;br&gt;3000&lt;span style=&quot;white-space: pre&quot;&gt; &lt;/span&gt;1.5%&lt;span style=&quot;white-space: pre&quot;&gt; &lt;/span&gt;45&lt;span style=&quot;white-space: pre&quot;&gt; &lt;span style=&quot;white-space: pre&quot;&gt; &lt;/span&gt;&lt;/span&gt;3 channel&lt;span style=&quot;white-space: pre&quot;&gt; &lt;/span&gt;KYC&lt;span style=&quot;white-space: pre&quot;&gt; &lt;/span&gt;&lt;span style=&quot;white-space: pre&quot;&gt; &lt;/span&gt;15k&lt;span style=&quot;white-space: pre&quot;&gt; &lt;span style=&quot;white-space: pre&quot;&gt; &lt;/span&gt;&lt;/span&gt;0&lt;span style=&quot;white-space: pre&quot;&gt; &lt;span style=&quot;white-space: pre&quot;&gt; &lt;/span&gt;&lt;/span&gt;0&lt;br&gt;6000&lt;span style=&quot;white-space: pre&quot;&gt; &lt;/span&gt;1.5%&lt;span style=&quot;white-space: pre&quot;&gt; &lt;/span&gt;90&lt;span style=&quot;white-space: pre&quot;&gt; &lt;span style=&quot;white-space: pre&quot;&gt; &lt;/span&gt;&lt;/span&gt;3 channel&lt;span style=&quot;white-space: pre&quot;&gt; &lt;/span&gt;支付&lt;span style=&quot;white-space: pre&quot;&gt; &lt;/span&gt;&lt;span style=&quot;white-space: pre&quot;&gt; &lt;/span&gt;30k&lt;span style=&quot;white-space: pre&quot;&gt; &lt;/span&gt;&lt;span style=&quot;white-space: pre&quot;&gt; &lt;/span&gt;0&lt;span style=&quot;white-space: pre&quot;&gt; &lt;/span&gt;&lt;span style=&quot;white-space: pre&quot;&gt; &lt;/span&gt;0&lt;br&gt;&lt;br&gt;8000&lt;span style=&quot;white-space: pre&quot;&gt; &lt;/span&gt;3%&lt;span style=&quot;white-space: pre&quot;&gt; &lt;/span&gt;&lt;span style=&quot;white-space: pre&quot;&gt; &lt;/span&gt;240&lt;span style=&quot;white-space: pre&quot;&gt; &lt;/span&gt;&lt;span style=&quot;white-space: pre&quot;&gt; &lt;/span&gt;4 channel&lt;span style=&quot;white-space: pre&quot;&gt; &lt;/span&gt;跨境&lt;span style=&quot;white-space: pre&quot;&gt; &lt;/span&gt;&lt;span style=&quot;white-space: pre&quot;&gt; &lt;/span&gt;30k&lt;span style=&quot;white-space: pre&quot;&gt; &lt;/span&gt;&lt;span style=&quot;white-space: pre&quot;&gt; &lt;/span&gt;60w&lt;span style=&quot;white-space: pre&quot;&gt; &lt;/span&gt;&lt;span style=&quot;white-space: pre&quot;&gt; &lt;/span&gt;10w&lt;br&gt;10000&lt;span style=&quot;white-space: pre&quot;&gt; &lt;/span&gt;5%&lt;span style=&quot;white-space: pre&quot;&gt; &lt;/span&gt;&lt;span style=&quot;white-space: pre&quot;&gt; &lt;/span&gt;500&lt;span style=&quot;white-space: pre&quot;&gt; &lt;/span&gt;&lt;span style=&quot;white-space: pre&quot;&gt; &lt;/span&gt;4 channel&lt;span style=&quot;white-space: pre&quot;&gt; &lt;/span&gt;外汇&lt;span style=&quot;white-space: pre&quot;&gt; &lt;/span&gt;&lt;span style=&quot;white-space: pre&quot;&gt; &lt;/span&gt;50k&lt;span style=&quot;white-space: pre&quot;&gt; &lt;/span&gt;&lt;span style=&quot;white-space: pre&quot;&gt; &lt;/span&gt;100w&lt;span style=&quot;white-space: pre&quot;&gt; &lt;/span&gt;50w&lt;br&gt;20000&lt;span style=&quot;white-space: pre&quot;&gt; &lt;/span&gt;5%&lt;span style=&quot;white-space: pre&quot;&gt; &lt;/span&gt;&lt;span style=&quot;white-space: pre&quot;&gt; &lt;/span&gt;1000&lt;span style=&quot;white-space: pre&quot;&gt; &lt;/span&gt;5 channel&lt;span style=&quot;white-space: pre&quot;&gt; &lt;/span&gt;&lt;span style=&quot;white-space: pre&quot;&gt; &lt;/span&gt;&lt;span style=&quot;white-space: pre&quot;&gt; &lt;/span&gt;50k&lt;span style=&quot;white-space: pre&quot;&gt; &lt;/span&gt;&lt;span style=&quot;white-space: pre&quot;&gt; &lt;/span&gt;200w&lt;span style=&quot;white-space: pre&quot;&gt; &lt;/span&gt;50w&lt;br&gt;50000&lt;span style=&quot;white-space: pre&quot;&gt; &lt;/span&gt;5%&lt;span style=&quot;white-space: pre&quot;&gt; &lt;/span&gt;&lt;span style=&quot;white-space: pre&quot;&gt; &lt;/span&gt;2500&lt;span style=&quot;white-space: pre&quot;&gt; &lt;/span&gt;6 channel&lt;span style=&quot;white-space: pre&quot;&gt; &lt;/span&gt;&lt;span style=&quot;white-space: pre&quot;&gt; &lt;/span&gt;&lt;span style=&quot;white-space: pre&quot;&gt; &lt;/span&gt;50k&lt;span style=&quot;white-space: pre&quot;&gt; &lt;/span&gt;&lt;span style=&quot;white-space: pre&quot;&gt; &lt;/span&gt;500w&lt;span style=&quot;white-space: pre&quot;&gt; &lt;/span&gt;100w&lt;br&gt;&lt;br&gt;100000&lt;span style=&quot;white-space: pre&quot;&gt; &lt;/span&gt;5%&lt;span style=&quot;white-space: pre&quot;&gt; &lt;/span&gt;&lt;span style=&quot;white-space: pre&quot;&gt; &lt;/span&gt;5000&lt;span style=&quot;white-space: pre&quot;&gt; &lt;/span&gt;10 channel&lt;span style=&quot;white-space: pre&quot;&gt; &lt;/span&gt;&lt;span style=&quot;white-space: pre&quot;&gt; &lt;/span&gt;&lt;span style=&quot;white-space: pre&quot;&gt; &lt;/span&gt;100k&lt;span style=&quot;white-space: pre&quot;&gt; &lt;/span&gt;1000w&lt;span style=&quot;white-space: pre&quot;&gt; &lt;/span&gt;200w&lt;br&gt;200000&lt;span style=&quot;white-space: pre&quot;&gt; &lt;/span&gt;5%&lt;span style=&quot;white-space: pre&quot;&gt; &lt;/span&gt;&lt;span style=&quot;white-space: pre&quot;&gt; &lt;/span&gt;10000&lt;span style=&quot;white-space: pre&quot;&gt; &lt;/span&gt;15 channel&lt;span style=&quot;white-space: pre&quot;&gt; &lt;/span&gt;&lt;span style=&quot;white-space: pre&quot;&gt; &lt;/span&gt;&lt;span style=&quot;white-space: pre&quot;&gt; &lt;/span&gt;100k&lt;span style=&quot;white-space: pre&quot;&gt; &lt;/span&gt;2000w&lt;span style=&quot;white-space: pre&quot;&gt; &lt;/span&gt;200w&lt;br&gt;500000&lt;span style=&quot;white-space: pre&quot;&gt; &lt;/span&gt;5%&lt;span style=&quot;white-space: pre&quot;&gt; &lt;/span&gt;&lt;span style=&quot;white-space: pre&quot;&gt; &lt;/span&gt;25000&lt;span style=&quot;white-space: pre&quot;&gt; &lt;/span&gt;20 channel&lt;span style=&quot;white-space: pre&quot;&gt; &lt;/span&gt;&lt;span style=&quot;white-space: pre&quot;&gt; &lt;/span&gt;&lt;span style=&quot;white-space: pre&quot;&gt; &lt;/span&gt;200k&lt;span style=&quot;white-space: pre&quot;&gt; &lt;/span&gt;5000w&lt;span style=&quot;white-space: pre&quot;&gt; &lt;/span&gt;500w&lt;br&gt;1000000&lt;span style=&quot;white-space: pre&quot;&gt; &lt;/span&gt;5%&lt;span style=&quot;white-space: pre&quot;&gt; &lt;/span&gt;&lt;span style=&quot;white-space: pre&quot;&gt; &lt;/span&gt;50000&lt;span style=&quot;white-space: pre&quot;&gt; &lt;/span&gt;30 channel&lt;span style=&quot;white-space: pre&quot;&gt; &lt;/span&gt;&lt;span style=&quot;white-space: pre&quot;&gt; &lt;/span&gt;&lt;span style=&quot;white-space: pre&quot;&gt; &lt;/span&gt;500k&lt;span style=&quot;white-space: pre&quot;&gt; &lt;/span&gt;10000w&lt;span style=&quot;white-space: pre&quot;&gt; &lt;/span&gt;1000w&lt;span style=&quot;white-space: pre&quot;&gt; &lt;/span&gt;" style="text;html=1;strokeColor=none;fillColor=none;align=left;verticalAlign=middle;whiteSpace=wrap;rounded=0;fontSize=7;" parent="1" vertex="1">
          <mxGeometry x="3150" y="-480" width="520" height="220" as="geometry" />
        </mxCell>
      </root>
    </mxGraphModel>
  </diagram>
  <diagram name="2022入学" id="_co7eBcjlKxzEgji4qW9">
    <mxGraphModel dx="1634" dy="794" grid="1" gridSize="10" guides="1" tooltips="1" connect="1" arrows="1" fold="1" page="0" pageScale="1" pageWidth="827" pageHeight="1169" math="0" shadow="0">
      <root>
        <mxCell id="Tta8IiUsY-lbWqiysxnZ-0" />
        <mxCell id="Tta8IiUsY-lbWqiysxnZ-1" parent="Tta8IiUsY-lbWqiysxnZ-0" />
        <mxCell id="Tta8IiUsY-lbWqiysxnZ-2" style="edgeStyle=orthogonalEdgeStyle;rounded=0;orthogonalLoop=1;jettySize=auto;html=1;" parent="Tta8IiUsY-lbWqiysxnZ-1" source="Tta8IiUsY-lbWqiysxnZ-4" target="Tta8IiUsY-lbWqiysxnZ-5" edge="1">
          <mxGeometry relative="1" as="geometry" />
        </mxCell>
        <mxCell id="Tta8IiUsY-lbWqiysxnZ-3" value="&lt;span style=&quot;color: rgb(245, 34, 45); font-size: 13px;&quot;&gt;入学信息登记&lt;/span&gt;" style="edgeLabel;html=1;align=center;verticalAlign=middle;resizable=0;points=[];fontSize=13;fontColor=#FF0000;fontStyle=1" parent="Tta8IiUsY-lbWqiysxnZ-2" vertex="1" connectable="0">
          <mxGeometry x="-0.2" relative="1" as="geometry">
            <mxPoint as="offset" />
          </mxGeometry>
        </mxCell>
        <mxCell id="Tta8IiUsY-lbWqiysxnZ-4" value="06/04" style="rounded=0;whiteSpace=wrap;html=1;fontSize=12;fontStyle=0" parent="Tta8IiUsY-lbWqiysxnZ-1" vertex="1">
          <mxGeometry x="240" y="240" width="80" height="40" as="geometry" />
        </mxCell>
        <mxCell id="nGn2Ac0xjgQE0izvm5U2-1" style="edgeStyle=orthogonalEdgeStyle;rounded=0;orthogonalLoop=1;jettySize=auto;html=1;fontFamily=Courier New;fontSize=12;fontColor=#FF0000;" parent="Tta8IiUsY-lbWqiysxnZ-1" source="Tta8IiUsY-lbWqiysxnZ-5" target="nGn2Ac0xjgQE0izvm5U2-0" edge="1">
          <mxGeometry relative="1" as="geometry" />
        </mxCell>
        <mxCell id="nGn2Ac0xjgQE0izvm5U2-2" value="&lt;span style=&quot;font-family: Helvetica; font-size: 13px; font-weight: 700;&quot;&gt;&lt;font color=&quot;#f5222d&quot;&gt;入学信息登记&lt;/font&gt;&lt;br&gt;&lt;font color=&quot;#00cc00&quot;&gt;入园信息登记&lt;/font&gt;&lt;br&gt;&lt;/span&gt;" style="edgeLabel;html=1;align=center;verticalAlign=middle;resizable=0;points=[];fontSize=12;fontFamily=Courier New;fontColor=#FF0000;" parent="nGn2Ac0xjgQE0izvm5U2-1" vertex="1" connectable="0">
          <mxGeometry x="-0.1" y="-1" relative="1" as="geometry">
            <mxPoint as="offset" />
          </mxGeometry>
        </mxCell>
        <mxCell id="Tta8IiUsY-lbWqiysxnZ-5" value="06/09" style="rounded=0;whiteSpace=wrap;html=1;" parent="Tta8IiUsY-lbWqiysxnZ-1" vertex="1">
          <mxGeometry x="240" y="320" width="80" height="40" as="geometry" />
        </mxCell>
        <mxCell id="Tta8IiUsY-lbWqiysxnZ-6" value="" style="edgeStyle=orthogonalEdgeStyle;rounded=0;orthogonalLoop=1;jettySize=auto;html=1;fontSize=12;fontColor=#FF0000;" parent="Tta8IiUsY-lbWqiysxnZ-1" source="Tta8IiUsY-lbWqiysxnZ-8" target="Tta8IiUsY-lbWqiysxnZ-9" edge="1">
          <mxGeometry relative="1" as="geometry">
            <Array as="points">
              <mxPoint x="280" y="650" />
              <mxPoint x="280" y="650" />
            </Array>
          </mxGeometry>
        </mxCell>
        <mxCell id="Tta8IiUsY-lbWqiysxnZ-7" value="&lt;div class=&quot;lake-content&quot; style=&quot;font-size: 13px;&quot;&gt;&lt;span style=&quot;color: rgb(245, 34, 45); font-size: 13px;&quot; class=&quot;ne-text&quot;&gt;民办网上报名&lt;/span&gt;&lt;/div&gt;" style="edgeLabel;html=1;align=center;verticalAlign=middle;resizable=0;points=[];fontSize=13;fontColor=#FF0000;fontStyle=1" parent="Tta8IiUsY-lbWqiysxnZ-6" vertex="1" connectable="0">
          <mxGeometry x="-0.2941" relative="1" as="geometry">
            <mxPoint as="offset" />
          </mxGeometry>
        </mxCell>
        <mxCell id="Tta8IiUsY-lbWqiysxnZ-8" value="06/22" style="rounded=0;whiteSpace=wrap;html=1;" parent="Tta8IiUsY-lbWqiysxnZ-1" vertex="1">
          <mxGeometry x="240" y="560" width="80" height="40" as="geometry" />
        </mxCell>
        <mxCell id="Tta8IiUsY-lbWqiysxnZ-9" value="06/24" style="rounded=0;whiteSpace=wrap;html=1;" parent="Tta8IiUsY-lbWqiysxnZ-1" vertex="1">
          <mxGeometry x="240" y="640" width="80" height="40" as="geometry" />
        </mxCell>
        <mxCell id="Tta8IiUsY-lbWqiysxnZ-10" value="06/26" style="rounded=0;whiteSpace=wrap;html=1;" parent="Tta8IiUsY-lbWqiysxnZ-1" vertex="1">
          <mxGeometry x="240" y="720" width="80" height="40" as="geometry" />
        </mxCell>
        <mxCell id="Tta8IiUsY-lbWqiysxnZ-11" style="edgeStyle=orthogonalEdgeStyle;rounded=0;orthogonalLoop=1;jettySize=auto;html=1;fontSize=12;fontColor=#000000;" parent="Tta8IiUsY-lbWqiysxnZ-1" source="Tta8IiUsY-lbWqiysxnZ-13" target="Tta8IiUsY-lbWqiysxnZ-14" edge="1">
          <mxGeometry relative="1" as="geometry" />
        </mxCell>
        <mxCell id="Tta8IiUsY-lbWqiysxnZ-12" value="&lt;div class=&quot;lake-content&quot; style=&quot;font-size: 13px;&quot;&gt;&lt;span style=&quot;color: rgb(245, 34, 45); font-size: 13px;&quot; class=&quot;ne-text&quot;&gt;民办随机录取&lt;/span&gt;&lt;/div&gt;" style="edgeLabel;html=1;align=center;verticalAlign=middle;resizable=0;points=[];fontSize=13;fontColor=#FF0000;fontStyle=1" parent="Tta8IiUsY-lbWqiysxnZ-11" vertex="1" connectable="0">
          <mxGeometry x="-0.0882" relative="1" as="geometry">
            <mxPoint as="offset" />
          </mxGeometry>
        </mxCell>
        <mxCell id="Tta8IiUsY-lbWqiysxnZ-13" value="07/04" style="rounded=0;whiteSpace=wrap;html=1;" parent="Tta8IiUsY-lbWqiysxnZ-1" vertex="1">
          <mxGeometry x="240" y="800" width="80" height="40" as="geometry" />
        </mxCell>
        <mxCell id="Tta8IiUsY-lbWqiysxnZ-14" value="07/05" style="rounded=0;whiteSpace=wrap;html=1;" parent="Tta8IiUsY-lbWqiysxnZ-1" vertex="1">
          <mxGeometry x="240" y="880" width="80" height="40" as="geometry" />
        </mxCell>
        <mxCell id="Tta8IiUsY-lbWqiysxnZ-15" value="07/10" style="rounded=0;whiteSpace=wrap;html=1;" parent="Tta8IiUsY-lbWqiysxnZ-1" vertex="1">
          <mxGeometry x="240" y="960" width="80" height="40" as="geometry" />
        </mxCell>
        <mxCell id="Tta8IiUsY-lbWqiysxnZ-16" style="edgeStyle=orthogonalEdgeStyle;rounded=0;orthogonalLoop=1;jettySize=auto;html=1;fontFamily=Courier New;fontSize=12;fontColor=#000000;" parent="Tta8IiUsY-lbWqiysxnZ-1" source="Tta8IiUsY-lbWqiysxnZ-18" target="Tta8IiUsY-lbWqiysxnZ-20" edge="1">
          <mxGeometry relative="1" as="geometry" />
        </mxCell>
        <mxCell id="Tta8IiUsY-lbWqiysxnZ-17" value="&lt;span style=&quot;color: rgb(245, 34, 45); font-family: Helvetica; font-size: 13px; font-weight: 700;&quot;&gt;民办调剂录取&lt;/span&gt;" style="edgeLabel;html=1;align=center;verticalAlign=middle;resizable=0;points=[];fontSize=12;fontFamily=Courier New;fontColor=#000000;" parent="Tta8IiUsY-lbWqiysxnZ-16" vertex="1" connectable="0">
          <mxGeometry x="-0.1727" relative="1" as="geometry">
            <mxPoint as="offset" />
          </mxGeometry>
        </mxCell>
        <mxCell id="Tta8IiUsY-lbWqiysxnZ-18" value="07/13" style="rounded=0;whiteSpace=wrap;html=1;" parent="Tta8IiUsY-lbWqiysxnZ-1" vertex="1">
          <mxGeometry x="240" y="1040" width="80" height="40" as="geometry" />
        </mxCell>
        <mxCell id="nGn2Ac0xjgQE0izvm5U2-13" style="edgeStyle=orthogonalEdgeStyle;rounded=0;orthogonalLoop=1;jettySize=auto;html=1;fontFamily=Courier New;fontSize=12;fontColor=#00CC00;" parent="Tta8IiUsY-lbWqiysxnZ-1" source="Tta8IiUsY-lbWqiysxnZ-20" target="Tta8IiUsY-lbWqiysxnZ-23" edge="1">
          <mxGeometry relative="1" as="geometry" />
        </mxCell>
        <mxCell id="Tta8IiUsY-lbWqiysxnZ-20" value="07/14" style="rounded=0;whiteSpace=wrap;html=1;" parent="Tta8IiUsY-lbWqiysxnZ-1" vertex="1">
          <mxGeometry x="240" y="1120" width="80" height="40" as="geometry" />
        </mxCell>
        <mxCell id="Tta8IiUsY-lbWqiysxnZ-21" style="edgeStyle=orthogonalEdgeStyle;rounded=0;orthogonalLoop=1;jettySize=auto;html=1;fontFamily=Courier New;fontSize=12;fontColor=#000000;" parent="Tta8IiUsY-lbWqiysxnZ-1" source="Tta8IiUsY-lbWqiysxnZ-23" target="Tta8IiUsY-lbWqiysxnZ-25" edge="1">
          <mxGeometry relative="1" as="geometry" />
        </mxCell>
        <mxCell id="Tta8IiUsY-lbWqiysxnZ-22" value="&lt;span style=&quot;color: rgb(245, 34, 45); font-family: Helvetica; font-size: 13px; font-weight: 700;&quot;&gt;公办&lt;br&gt;第二批&lt;br&gt;验证&lt;/span&gt;" style="edgeLabel;html=1;align=center;verticalAlign=middle;resizable=0;points=[];fontSize=12;fontFamily=Courier New;fontColor=#000000;" parent="Tta8IiUsY-lbWqiysxnZ-21" vertex="1" connectable="0">
          <mxGeometry x="-0.15" y="1" relative="1" as="geometry">
            <mxPoint as="offset" />
          </mxGeometry>
        </mxCell>
        <mxCell id="Tta8IiUsY-lbWqiysxnZ-23" value="07/25" style="rounded=0;whiteSpace=wrap;html=1;" parent="Tta8IiUsY-lbWqiysxnZ-1" vertex="1">
          <mxGeometry x="360" y="1120" width="80" height="40" as="geometry" />
        </mxCell>
        <mxCell id="Tta8IiUsY-lbWqiysxnZ-24" style="edgeStyle=orthogonalEdgeStyle;rounded=0;orthogonalLoop=1;jettySize=auto;html=1;fontFamily=Courier New;fontSize=12;fontColor=#000000;" parent="Tta8IiUsY-lbWqiysxnZ-1" source="Tta8IiUsY-lbWqiysxnZ-25" target="Tta8IiUsY-lbWqiysxnZ-26" edge="1">
          <mxGeometry relative="1" as="geometry" />
        </mxCell>
        <mxCell id="Tta8IiUsY-lbWqiysxnZ-25" value="07/26" style="rounded=0;whiteSpace=wrap;html=1;" parent="Tta8IiUsY-lbWqiysxnZ-1" vertex="1">
          <mxGeometry x="520" y="1120" width="80" height="40" as="geometry" />
        </mxCell>
        <mxCell id="Tta8IiUsY-lbWqiysxnZ-26" value="08/15" style="rounded=0;whiteSpace=wrap;html=1;" parent="Tta8IiUsY-lbWqiysxnZ-1" vertex="1">
          <mxGeometry x="640" y="1120" width="80" height="40" as="geometry" />
        </mxCell>
        <mxCell id="Tta8IiUsY-lbWqiysxnZ-27" value="&lt;p style=&quot;line-height: 1.5;&quot;&gt;&lt;font face=&quot;Courier New&quot;&gt;&lt;font style=&quot;font-size: 12px;&quot;&gt;1. 通过浦东指定方式下载&lt;font style=&quot;font-size: 12px;&quot;&gt;《&lt;span style=&quot;background-color: initial; font-size: 12px;&quot;&gt;入学信息登记空表&lt;/span&gt;&lt;span style=&quot;background-color: initial; font-size: 12px;&quot;&gt;》&lt;/span&gt;&lt;/font&gt;&lt;/font&gt;&lt;/font&gt;&lt;/p&gt;&lt;p style=&quot;line-height: 1.5;&quot;&gt;&lt;font face=&quot;Courier New&quot;&gt;&lt;font style=&quot;font-size: 12px;&quot;&gt;&lt;font style=&quot;font-size: 12px;&quot;&gt;&lt;span style=&quot;background-color: initial; font-size: 12px;&quot;&gt;2. 填写完毕通过浦东指定方式上传&lt;/span&gt;&lt;/font&gt;&lt;/font&gt;&lt;/font&gt;&lt;/p&gt;&lt;p style=&quot;line-height: 1.5;&quot;&gt;&lt;font face=&quot;Courier New&quot;&gt;&lt;font style=&quot;font-size: 12px;&quot;&gt;&lt;span style=&quot;background-color: initial;&quot;&gt;3. 上传佐证材料&lt;/span&gt;&lt;/font&gt;&lt;/font&gt;&lt;/p&gt;&lt;p style=&quot;line-height: 1.5;&quot;&gt;&lt;font face=&quot;Courier New&quot;&gt;&lt;font style=&quot;font-size: 12px;&quot;&gt;&lt;span style=&quot;background-color: initial;&quot;&gt;4. 浦东&lt;/span&gt;&lt;/font&gt;&lt;span style=&quot;background-color: initial;&quot;&gt;教育部门落实信息登记工作&lt;/span&gt;&lt;/font&gt;&lt;/p&gt;&lt;p style=&quot;line-height: 1.5;&quot;&gt;&lt;font face=&quot;Courier New&quot;&gt;&lt;span style=&quot;background-color: initial;&quot;&gt;5.&amp;nbsp;&lt;/span&gt;&lt;span style=&quot;background-color: initial;&quot;&gt;&lt;font color=&quot;#ff0000&quot;&gt;《上海市小学入学信息登记表》&lt;/font&gt;为入学报名的重要凭证，请妥善保管&lt;/span&gt;&lt;/font&gt;&lt;/p&gt;&lt;p style=&quot;line-height: 1.5;&quot;&gt;&lt;font face=&quot;Courier New&quot;&gt;&lt;span style=&quot;background-color: initial;&quot;&gt;6.&amp;nbsp;&lt;/span&gt;&lt;span style=&quot;background-color: initial;&quot; class=&quot;ne-text&quot;&gt;收到登记成功&lt;/span&gt;&lt;span style=&quot;background-color: initial; color: rgb(245, 34, 45);&quot; class=&quot;ne-text&quot;&gt;短信&lt;/span&gt;&lt;span style=&quot;background-color: initial;&quot; class=&quot;ne-text&quot;&gt;。如没收到拨打962066.&lt;/span&gt;&lt;/font&gt;&lt;/p&gt;&lt;p style=&quot;line-height: 1.5;&quot;&gt;&lt;font face=&quot;Courier New&quot;&gt;&lt;span style=&quot;background-color: initial;&quot; class=&quot;ne-text&quot;&gt;7. &lt;font color=&quot;#ff0000&quot;&gt;材料&lt;/font&gt;：身份证、户口本、租赁合同、张江镇田园路居民委员会、监护人填户主&lt;/span&gt;&lt;/font&gt;&lt;/p&gt;" style="strokeWidth=2;html=1;shape=mxgraph.flowchart.annotation_2;align=left;labelPosition=right;pointerEvents=1;fontSize=12;verticalAlign=middle;horizontal=1;spacing=2;spacingTop=1;fontFamily=Helvetica;" parent="Tta8IiUsY-lbWqiysxnZ-1" vertex="1">
          <mxGeometry x="340" y="240" width="40" height="280" as="geometry" />
        </mxCell>
        <mxCell id="Tta8IiUsY-lbWqiysxnZ-28" value="&lt;p style=&quot;line-height: 1.5;&quot;&gt;&lt;font style=&quot;font-size: 11px;&quot; face=&quot;Courier New&quot;&gt;&lt;font style=&quot;font-size: 11px;&quot;&gt;&lt;font style=&quot;font-size: 11px;&quot;&gt;1. &lt;b&gt;报名地址：&lt;/b&gt;&lt;/font&gt;&lt;/font&gt;&lt;/font&gt;&lt;span style=&quot;background-color: initial;&quot;&gt;zwdt.sh.gov.cn（&lt;font color=&quot;#ff0000&quot;&gt;一网通办&lt;/font&gt;）zwdtuser.sh.gov.cn/uc/login/login.jsp（义务教育入学专栏）&lt;br&gt;&lt;/span&gt;&lt;span style=&quot;white-space: pre;&quot;&gt; &lt;/span&gt;&lt;span style=&quot;white-space: pre;&quot;&gt; &lt;/span&gt;&lt;span style=&quot;white-space: pre;&quot;&gt; &lt;/span&gt;shrxbm.edu.sh.gov.cn（&lt;font color=&quot;#ff0000&quot;&gt;上海义务教育入学报名系统&lt;/font&gt;）&lt;span style=&quot;background-color: initial;&quot;&gt;&lt;br&gt;&lt;/span&gt;&lt;font style=&quot;font-size: 11px; background-color: initial; font-family: &amp;quot;Courier New&amp;quot;;&quot;&gt;2.&amp;nbsp;&lt;b&gt;报名登录：&lt;/b&gt;&lt;/font&gt;&lt;span style=&quot;font-size: 11px; background-color: initial; font-family: &amp;quot;Courier New&amp;quot;;&quot;&gt;凭孩子证件号、初始化密码登录一网通办网站义务教育入学专栏，公办民办只能二选一&lt;br&gt;&lt;/span&gt;&lt;span style=&quot;font-size: 11px; font-family: &amp;quot;Courier New&amp;quot;; background-color: initial;&quot; class=&quot;ne-text&quot;&gt;&lt;span style=&quot;&quot;&gt; &lt;/span&gt;&amp;nbsp; &amp;nbsp;&lt;span style=&quot;white-space: pre;&quot;&gt; &lt;/span&gt;&amp;nbsp; &amp;nbsp;进入“民办小学报名”页面，会出现“报名指南”，&lt;/span&gt;&lt;span style=&quot;font-size: 11px; font-family: &amp;quot;Courier New&amp;quot;; background-color: initial;&quot;&gt;仔细阅读“报名指南”并勾选 xxx&lt;br&gt;&lt;/span&gt;&lt;span style=&quot;font-family: &amp;quot;Courier New&amp;quot;; text-align: center;&quot;&gt;&lt;span style=&quot;white-space: pre;&quot;&gt; &lt;/span&gt;&amp;nbsp; &amp;nbsp;&lt;font color=&quot;#ff0000&quot;&gt;报名志愿须确认是否符合报名条件&lt;/font&gt;&lt;/span&gt;&lt;span style=&quot;font-size: 11px; font-family: &amp;quot;Courier New&amp;quot;; background-color: initial;&quot;&gt;&lt;br&gt;&lt;/span&gt;&lt;span style=&quot;font-size: 11px; font-family: &amp;quot;Courier New&amp;quot;; background-color: initial;&quot;&gt;2.&lt;/span&gt;&lt;span style=&quot;font-size: 11px; font-family: &amp;quot;Courier New&amp;quot;; background-color: initial;&quot;&gt;&amp;nbsp;&lt;/span&gt;&lt;b style=&quot;font-size: 11px; font-family: &amp;quot;Courier New&amp;quot;; background-color: initial;&quot;&gt;填报志愿：&lt;/b&gt;&lt;span style=&quot;font-size: 11px; font-family: &amp;quot;Courier New&amp;quot;; background-color: initial;&quot;&gt;填写第一志愿 &amp;amp;&amp;nbsp;&lt;/span&gt;&lt;span style=&quot;font-size: 11px; font-family: &amp;quot;Courier New&amp;quot;; background-color: initial;&quot;&gt;调剂志愿（&lt;/span&gt;&lt;span style=&quot;font-size: 11px; font-family: &amp;quot;Courier New&amp;quot;; background-color: initial;&quot;&gt;同校调剂，&lt;/span&gt;&lt;span style=&quot;font-size: 11px; font-family: &amp;quot;Courier New&amp;quot;; background-color: initial;&quot;&gt;区内调剂，&lt;/span&gt;&lt;span style=&quot;font-size: 11px; font-family: &amp;quot;Courier New&amp;quot;; background-color: initial;&quot;&gt;集团内外区调剂&lt;/span&gt;&lt;span style=&quot;font-size: 11px; font-family: &amp;quot;Courier New&amp;quot;; background-color: initial;&quot;&gt;）&lt;br&gt;&lt;/span&gt;&lt;span style=&quot;font-size: 11px; font-family: &amp;quot;Courier New&amp;quot;; background-color: initial;&quot;&gt;3.&amp;nbsp;&lt;/span&gt;&lt;span style=&quot;font-size: 11px; font-family: &amp;quot;Courier New&amp;quot;; background-color: initial;&quot;&gt;&lt;b&gt;确认提交：&lt;/b&gt;&lt;/span&gt;&lt;span style=&quot;font-size: 11px; font-family: &amp;quot;Courier New&amp;quot;; background-color: initial;&quot;&gt;一旦点击按钮，将完成报名，&lt;font color=&quot;#ff0000&quot;&gt;不得再次报名、更改或放弃&lt;br&gt;&lt;/font&gt;&lt;/span&gt;&lt;span style=&quot;font-size: 11px; font-family: &amp;quot;Courier New&amp;quot;; background-color: initial;&quot;&gt;4.&amp;nbsp;&lt;/span&gt;&lt;b style=&quot;font-size: 11px; font-family: &amp;quot;Courier New&amp;quot;; background-color: initial;&quot;&gt;报名成功&lt;span style=&quot;background-color: initial;&quot;&gt;：&lt;/span&gt;&lt;/b&gt;&lt;span style=&quot;background-color: initial;&quot;&gt;shrxbm.edu.sh.gov.&lt;/span&gt;&lt;/p&gt;&lt;p&gt;&lt;/p&gt;" style="strokeWidth=2;html=1;shape=mxgraph.flowchart.annotation_2;align=left;labelPosition=right;pointerEvents=1;fontSize=12;" parent="Tta8IiUsY-lbWqiysxnZ-1" vertex="1">
          <mxGeometry x="340" y="560" width="40" height="120" as="geometry" />
        </mxCell>
        <mxCell id="Tta8IiUsY-lbWqiysxnZ-31" value="&lt;p style=&quot;line-height: 1.5;&quot;&gt;&lt;font&gt;&lt;font style=&quot;font-size: 12px;&quot;&gt;1.&amp;nbsp;&lt;/font&gt;&lt;span style=&quot;background-color: initial; line-height: 1;&quot;&gt;第一志愿超额进行电脑随机录取，未录取进入调剂志愿&lt;br&gt;&lt;/span&gt;&lt;/font&gt;&lt;/p&gt;&lt;p style=&quot;line-height: 1.5;&quot;&gt;&lt;font&gt;&lt;span style=&quot;background-color: initial;&quot;&gt;2.&amp;nbsp;&lt;/span&gt;&lt;span style=&quot;background-color: initial; line-height: 1;&quot;&gt;调剂志愿超额也进行电脑随机录取&lt;/span&gt;&lt;/font&gt;&lt;/p&gt;&lt;p style=&quot;line-height: 1.5;&quot;&gt;&lt;font&gt;&lt;span style=&quot;background-color: initial; line-height: 1;&quot;&gt;3.&amp;nbsp;&lt;/span&gt;&lt;/font&gt;&lt;span style=&quot;background-color: initial;&quot;&gt;调剂志愿未录取进入公办小学第二批验证，以本市户籍人户一致优先、同类排序靠后为原则&lt;/span&gt;&lt;/p&gt;&lt;p style=&quot;line-height: 1.5;&quot;&gt;&lt;span style=&quot;background-color: initial;&quot;&gt;4. 结果通过短信通知，可&lt;/span&gt;&lt;span style=&quot;background-color: initial;&quot;&gt;登录“一网通办”网站义务教育入学专栏或“入学报名系统”查询。&lt;/span&gt;&lt;/p&gt;&lt;div class=&quot;lake-content&quot;&gt;&lt;span class=&quot;ne-text&quot;&gt;&lt;font&gt;5.&amp;nbsp;&lt;/font&gt;&lt;/span&gt;&lt;span style=&quot;text-align: justify; background-color: initial;&quot;&gt;一旦被报名的民办学校录取，不得放弃&lt;/span&gt;&lt;/div&gt;" style="strokeWidth=2;html=1;shape=mxgraph.flowchart.annotation_2;align=left;labelPosition=right;pointerEvents=1;fontSize=12;verticalAlign=middle;horizontal=1;spacing=2;spacingTop=1;fontFamily=Courier New;" parent="Tta8IiUsY-lbWqiysxnZ-1" vertex="1">
          <mxGeometry x="340" y="800" width="40" height="120" as="geometry" />
        </mxCell>
        <mxCell id="Tta8IiUsY-lbWqiysxnZ-32" value="&lt;p style=&quot;line-height: 1.5;&quot;&gt;1. 9号12点开放&lt;font color=&quot;#00cc00&quot;&gt;入园报名系统&lt;/font&gt;&lt;br&gt;&lt;/p&gt;&lt;p style=&quot;line-height: 1.5;&quot;&gt;2. 下载&lt;font color=&quot;#00cc00&quot;&gt;《适龄幼儿入园登记表》&lt;/font&gt;&lt;/p&gt;&lt;p style=&quot;line-height: 1.5;&quot;&gt;3. 信息登记、信息反馈、信息入库&lt;/p&gt;&lt;p style=&quot;line-height: 1.5;&quot;&gt;4. 收到登记成功短信，未收到网站查询&lt;/p&gt;" style="strokeWidth=2;html=1;shape=mxgraph.flowchart.annotation_2;align=right;labelPosition=left;pointerEvents=1;fontSize=12;verticalAlign=middle;horizontal=1;spacing=2;spacingTop=1;fontFamily=Helvetica;direction=west;verticalLabelPosition=middle;fontColor=#000000;strokeColor=#00CC00;" parent="Tta8IiUsY-lbWqiysxnZ-1" vertex="1">
          <mxGeometry x="195" y="320" width="40" height="120" as="geometry" />
        </mxCell>
        <mxCell id="Tta8IiUsY-lbWqiysxnZ-35" value="&lt;span style=&quot;color: rgb(0, 0, 0); font-family: Helvetica; font-size: 12px; font-style: normal; font-variant-ligatures: normal; font-variant-caps: normal; font-weight: 400; letter-spacing: normal; orphans: 2; text-indent: 0px; text-transform: none; widows: 2; word-spacing: 0px; -webkit-text-stroke-width: 0px; background-color: rgb(255, 255, 255); text-decoration-thickness: initial; text-decoration-style: initial; text-decoration-color: initial; float: none; display: inline !important;&quot;&gt;公办&lt;span style=&quot;background-color: initial;&quot;&gt;第一批&lt;/span&gt;&lt;span style=&quot;background-color: initial;&quot;&gt;线上&lt;/span&gt;&lt;span style=&quot;background-color: initial;&quot;&gt;验证&lt;br&gt;&lt;/span&gt;&lt;span style=&quot;background-color: initial;&quot;&gt;截止（04-10）&lt;br&gt;&lt;/span&gt;&lt;/span&gt;" style="text;whiteSpace=wrap;html=1;fontSize=12;fontFamily=Courier New;fontColor=#FF0000;align=left;" parent="Tta8IiUsY-lbWqiysxnZ-1" vertex="1">
          <mxGeometry x="220" y="920" width="120" height="40" as="geometry" />
        </mxCell>
        <mxCell id="Tta8IiUsY-lbWqiysxnZ-36" value="&lt;div class=&quot;lake-content&quot;&gt;&lt;br&gt;&lt;/div&gt;" style="text;html=1;align=center;verticalAlign=middle;resizable=0;points=[];autosize=1;strokeColor=none;fillColor=none;fontSize=12;fontFamily=Courier New;fontColor=#000000;" parent="Tta8IiUsY-lbWqiysxnZ-1" vertex="1">
          <mxGeometry x="650" y="750" width="20" height="20" as="geometry" />
        </mxCell>
        <mxCell id="Tta8IiUsY-lbWqiysxnZ-37" value="&lt;p style=&quot;line-height: 1.5;&quot;&gt;1. 民办对于需要家长确认是否符合条件的，各区组织验证，&lt;span style=&quot;color: rgb(255, 0, 0); background-color: initial;&quot;&gt;验证不通过的将不予录取&lt;/span&gt;&lt;/p&gt;&lt;p style=&quot;line-height: 1.5;&quot;&gt;&lt;span style=&quot;background-color: initial;&quot;&gt;2. 10日起民办公办小学入学信息告知&lt;/span&gt;&lt;/p&gt;" style="strokeWidth=2;html=1;shape=mxgraph.flowchart.annotation_2;align=left;labelPosition=right;pointerEvents=1;fontSize=12;verticalAlign=middle;horizontal=1;spacing=2;spacingTop=1;fontFamily=Courier New;" parent="Tta8IiUsY-lbWqiysxnZ-1" vertex="1">
          <mxGeometry x="340" y="960" width="40" height="40" as="geometry" />
        </mxCell>
        <mxCell id="Tta8IiUsY-lbWqiysxnZ-38" value="&lt;span style=&quot;text-align: left;&quot;&gt;15日起开始发放小学录取通知书&lt;/span&gt;" style="text;html=1;align=center;verticalAlign=middle;resizable=0;points=[];autosize=1;strokeColor=none;fillColor=none;fontSize=12;fontFamily=Courier New;fontColor=#000000;" parent="Tta8IiUsY-lbWqiysxnZ-1" vertex="1">
          <mxGeometry x="580" y="1100" width="190" height="20" as="geometry" />
        </mxCell>
        <mxCell id="Tta8IiUsY-lbWqiysxnZ-39" style="edgeStyle=orthogonalEdgeStyle;rounded=0;orthogonalLoop=1;jettySize=auto;html=1;fontFamily=Courier New;fontSize=12;fontColor=#FF0000;" parent="Tta8IiUsY-lbWqiysxnZ-1" source="Tta8IiUsY-lbWqiysxnZ-40" target="Tta8IiUsY-lbWqiysxnZ-42" edge="1">
          <mxGeometry relative="1" as="geometry" />
        </mxCell>
        <mxCell id="Tta8IiUsY-lbWqiysxnZ-40" value="05/29" style="rounded=0;whiteSpace=wrap;html=1;fontSize=12;fontStyle=0" parent="Tta8IiUsY-lbWqiysxnZ-1" vertex="1">
          <mxGeometry x="240" y="160" width="80" height="40" as="geometry" />
        </mxCell>
        <mxCell id="Tta8IiUsY-lbWqiysxnZ-41" style="edgeStyle=orthogonalEdgeStyle;rounded=0;orthogonalLoop=1;jettySize=auto;html=1;fontFamily=Courier New;fontSize=12;fontColor=#FF0000;" parent="Tta8IiUsY-lbWqiysxnZ-1" source="Tta8IiUsY-lbWqiysxnZ-42" target="Tta8IiUsY-lbWqiysxnZ-44" edge="1">
          <mxGeometry relative="1" as="geometry" />
        </mxCell>
        <mxCell id="Tta8IiUsY-lbWqiysxnZ-42" value="05/30" style="rounded=0;whiteSpace=wrap;html=1;fontSize=12;fontStyle=0" parent="Tta8IiUsY-lbWqiysxnZ-1" vertex="1">
          <mxGeometry x="360" y="160" width="80" height="40" as="geometry" />
        </mxCell>
        <mxCell id="Tta8IiUsY-lbWqiysxnZ-43" style="edgeStyle=orthogonalEdgeStyle;rounded=0;orthogonalLoop=1;jettySize=auto;html=1;fontFamily=Courier New;fontSize=12;fontColor=#FF0000;" parent="Tta8IiUsY-lbWqiysxnZ-1" source="Tta8IiUsY-lbWqiysxnZ-44" target="Tta8IiUsY-lbWqiysxnZ-48" edge="1">
          <mxGeometry relative="1" as="geometry" />
        </mxCell>
        <mxCell id="Tta8IiUsY-lbWqiysxnZ-44" value="05/31" style="rounded=0;whiteSpace=wrap;html=1;fontSize=12;fontStyle=0" parent="Tta8IiUsY-lbWqiysxnZ-1" vertex="1">
          <mxGeometry x="480" y="160" width="80" height="40" as="geometry" />
        </mxCell>
        <mxCell id="Tta8IiUsY-lbWqiysxnZ-45" value="公布招生细节" style="text;html=1;align=center;verticalAlign=middle;resizable=0;points=[];autosize=1;strokeColor=none;fillColor=none;fontSize=12;fontFamily=Courier New;fontColor=#FF0000;fontStyle=1" parent="Tta8IiUsY-lbWqiysxnZ-1" vertex="1">
          <mxGeometry x="235" y="200" width="90" height="20" as="geometry" />
        </mxCell>
        <mxCell id="Tta8IiUsY-lbWqiysxnZ-46" value="校园开发日&lt;br&gt;（7天以上）" style="text;html=1;align=center;verticalAlign=middle;resizable=0;points=[];autosize=1;strokeColor=none;fillColor=none;fontSize=12;fontFamily=Courier New;fontColor=#FF0000;fontStyle=1" parent="Tta8IiUsY-lbWqiysxnZ-1" vertex="1">
          <mxGeometry x="360" y="200" width="80" height="30" as="geometry" />
        </mxCell>
        <mxCell id="Tta8IiUsY-lbWqiysxnZ-47" value="&lt;span style=&quot;font-family: Helvetica; text-align: left;&quot;&gt;&lt;b&gt;入学报名系统开放&lt;/b&gt;&lt;/span&gt;" style="text;html=1;align=center;verticalAlign=middle;resizable=0;points=[];autosize=1;strokeColor=none;fillColor=none;fontSize=12;fontFamily=Courier New;fontColor=#FF0000;" parent="Tta8IiUsY-lbWqiysxnZ-1" vertex="1">
          <mxGeometry x="465" y="200" width="110" height="20" as="geometry" />
        </mxCell>
        <mxCell id="nGn2Ac0xjgQE0izvm5U2-11" style="edgeStyle=orthogonalEdgeStyle;rounded=0;orthogonalLoop=1;jettySize=auto;html=1;fontFamily=Courier New;fontSize=12;fontColor=#000000;" parent="Tta8IiUsY-lbWqiysxnZ-1" source="Tta8IiUsY-lbWqiysxnZ-48" target="nGn2Ac0xjgQE0izvm5U2-10" edge="1">
          <mxGeometry relative="1" as="geometry" />
        </mxCell>
        <mxCell id="Tta8IiUsY-lbWqiysxnZ-48" value="6月2号" style="rounded=0;whiteSpace=wrap;html=1;fontSize=12;fontStyle=0" parent="Tta8IiUsY-lbWqiysxnZ-1" vertex="1">
          <mxGeometry x="600" y="160" width="80" height="40" as="geometry" />
        </mxCell>
        <mxCell id="Tta8IiUsY-lbWqiysxnZ-49" value="&lt;p style=&quot;line-height: 1.5;&quot;&gt;&lt;br&gt;&lt;/p&gt;" style="text;html=1;align=left;verticalAlign=middle;resizable=0;points=[];autosize=1;strokeColor=none;fillColor=none;fontSize=11;fontFamily=Courier New;fontColor=#FF0000;" parent="Tta8IiUsY-lbWqiysxnZ-1" vertex="1">
          <mxGeometry x="300" y="130" width="20" height="50" as="geometry" />
        </mxCell>
        <mxCell id="Tta8IiUsY-lbWqiysxnZ-50" value="&lt;p style=&quot;line-height: 1.5;&quot;&gt;&lt;br&gt;&lt;/p&gt;" style="strokeWidth=2;html=1;shape=mxgraph.flowchart.annotation_2;align=left;labelPosition=right;pointerEvents=1;fontSize=12;verticalAlign=middle;horizontal=1;spacing=2;spacingTop=1;fontFamily=Helvetica;direction=south;" parent="Tta8IiUsY-lbWqiysxnZ-1" vertex="1">
          <mxGeometry x="280" y="120" width="480" height="40" as="geometry" />
        </mxCell>
        <mxCell id="Tta8IiUsY-lbWqiysxnZ-51" value="线上家长会" style="text;html=1;align=center;verticalAlign=middle;resizable=0;points=[];autosize=1;strokeColor=none;fillColor=none;fontSize=12;fontFamily=Courier New;fontColor=#FF0000;fontStyle=1" parent="Tta8IiUsY-lbWqiysxnZ-1" vertex="1">
          <mxGeometry x="440" y="120" width="80" height="20" as="geometry" />
        </mxCell>
        <mxCell id="nGn2Ac0xjgQE0izvm5U2-5" style="edgeStyle=orthogonalEdgeStyle;rounded=0;orthogonalLoop=1;jettySize=auto;html=1;fontFamily=Courier New;fontSize=12;fontColor=#FF0000;" parent="Tta8IiUsY-lbWqiysxnZ-1" source="nGn2Ac0xjgQE0izvm5U2-0" target="nGn2Ac0xjgQE0izvm5U2-4" edge="1">
          <mxGeometry relative="1" as="geometry" />
        </mxCell>
        <mxCell id="nGn2Ac0xjgQE0izvm5U2-6" value="&lt;span style=&quot;color: rgb(245, 34, 45); font-family: Helvetica; font-size: 13px; font-weight: 700;&quot;&gt;入学信息登记&lt;/span&gt;" style="edgeLabel;html=1;align=center;verticalAlign=middle;resizable=0;points=[];fontSize=12;fontFamily=Courier New;fontColor=#FF0000;" parent="nGn2Ac0xjgQE0izvm5U2-5" vertex="1" connectable="0">
          <mxGeometry x="-0.225" relative="1" as="geometry">
            <mxPoint as="offset" />
          </mxGeometry>
        </mxCell>
        <mxCell id="nGn2Ac0xjgQE0izvm5U2-0" value="06/16" style="rounded=0;whiteSpace=wrap;html=1;" parent="Tta8IiUsY-lbWqiysxnZ-1" vertex="1">
          <mxGeometry x="240" y="400" width="80" height="40" as="geometry" />
        </mxCell>
        <mxCell id="nGn2Ac0xjgQE0izvm5U2-16" value="&lt;font color=&quot;#000000&quot;&gt;民办一贯制录取&lt;/font&gt;" style="edgeStyle=orthogonalEdgeStyle;rounded=0;orthogonalLoop=1;jettySize=auto;html=1;fontFamily=Courier New;fontSize=11;fontColor=#009900;" parent="Tta8IiUsY-lbWqiysxnZ-1" source="nGn2Ac0xjgQE0izvm5U2-4" target="Tta8IiUsY-lbWqiysxnZ-8" edge="1">
          <mxGeometry relative="1" as="geometry" />
        </mxCell>
        <mxCell id="nGn2Ac0xjgQE0izvm5U2-4" value="06/19" style="rounded=0;whiteSpace=wrap;html=1;" parent="Tta8IiUsY-lbWqiysxnZ-1" vertex="1">
          <mxGeometry x="240" y="480" width="80" height="40" as="geometry" />
        </mxCell>
        <mxCell id="nGn2Ac0xjgQE0izvm5U2-7" value="&lt;span style=&quot;color: rgb(0, 0, 0); font-family: Helvetica; font-size: 12px; font-style: normal; font-variant-ligatures: normal; font-variant-caps: normal; font-weight: 400; letter-spacing: normal; orphans: 2; text-align: center; text-indent: 0px; text-transform: none; widows: 2; word-spacing: 0px; -webkit-text-stroke-width: 0px; background-color: rgb(255, 255, 255); text-decoration-thickness: initial; text-decoration-style: initial; text-decoration-color: initial; float: none; display: inline !important;&quot;&gt;公办&lt;/span&gt;&lt;span style=&quot;color: rgb(0, 0, 0); font-family: Helvetica; font-size: 12px; font-style: normal; font-variant-ligatures: normal; font-variant-caps: normal; font-weight: 400; letter-spacing: normal; orphans: 2; text-align: center; text-indent: 0px; text-transform: none; widows: 2; word-spacing: 0px; -webkit-text-stroke-width: 0px; background-color: rgb(255, 255, 255); text-decoration-thickness: initial; text-decoration-style: initial; text-decoration-color: initial; float: none; display: inline !important;&quot;&gt;网上&lt;/span&gt;&lt;span style=&quot;color: rgb(0, 0, 0); font-family: Helvetica; font-size: 12px; font-style: normal; font-variant-ligatures: normal; font-variant-caps: normal; font-weight: 400; letter-spacing: normal; orphans: 2; text-align: center; text-indent: 0px; text-transform: none; widows: 2; word-spacing: 0px; -webkit-text-stroke-width: 0px; background-color: rgb(255, 255, 255); text-decoration-thickness: initial; text-decoration-style: initial; text-decoration-color: initial; float: none; display: inline !important;&quot;&gt;报名截止（22-26）&lt;/span&gt;" style="text;whiteSpace=wrap;html=1;fontSize=12;fontFamily=Courier New;fontColor=#FF0000;" parent="Tta8IiUsY-lbWqiysxnZ-1" vertex="1">
          <mxGeometry x="325" y="725" width="165" height="30" as="geometry" />
        </mxCell>
        <mxCell id="nGn2Ac0xjgQE0izvm5U2-8" value="&lt;p style=&quot;line-height: 1.5;&quot;&gt;1. 6月2号公布报名细节&lt;/p&gt;&lt;p style=&quot;line-height: 1.5;&quot;&gt;2. 6月24号启动报名和验证&lt;/p&gt;&lt;p style=&quot;line-height: 1.5;&quot;&gt;3. 报名、验证&lt;/p&gt;&lt;p style=&quot;line-height: 1.5;&quot;&gt;&lt;span style=&quot;font-family: 微软雅黑, &amp;quot;Microsoft YaHei&amp;quot;, sans-serif; font-size: 11px; letter-spacing: 1.5px; text-align: justify; text-indent: 34px; caret-color: rgb(255, 0, 0);&quot;&gt;4. 按各区公布入园时间完善信息&lt;/span&gt;&lt;br&gt;&lt;/p&gt;&lt;span style=&quot;font-family: 微软雅黑, &amp;quot;Microsoft YaHei&amp;quot;, sans-serif; font-size: 11px; letter-spacing: 1.5px; text-align: justify; text-indent: 34px; caret-color: rgb(255, 0, 0);&quot;&gt;5. 上传&lt;font color=&quot;#00cc00&quot;&gt;验证材料照片&lt;/font&gt;&lt;/span&gt;&lt;span style=&quot;color: rgb(0, 204, 0); font-family: 微软雅黑, &amp;quot;Microsoft YaHei&amp;quot;, sans-serif; font-size: 11px; letter-spacing: 1.5px; text-align: justify; text-indent: 34px; caret-color: rgb(255, 0, 0);&quot;&gt;&lt;br&gt;&lt;/span&gt;" style="strokeWidth=2;html=1;shape=mxgraph.flowchart.annotation_2;align=right;labelPosition=left;pointerEvents=1;fontSize=12;verticalAlign=middle;horizontal=1;spacing=2;spacingTop=1;fontFamily=Helvetica;direction=west;verticalLabelPosition=middle;fontColor=#000000;strokeColor=#00CC00;" parent="Tta8IiUsY-lbWqiysxnZ-1" vertex="1">
          <mxGeometry x="180" y="640" width="40" height="520" as="geometry" />
        </mxCell>
        <mxCell id="nGn2Ac0xjgQE0izvm5U2-9" value="&lt;span style=&quot;text-align: left;&quot;&gt;15日前开始发放幼儿园录取通知书&lt;/span&gt;" style="text;html=1;align=center;verticalAlign=middle;resizable=0;points=[];autosize=1;strokeColor=none;fillColor=none;fontSize=12;fontFamily=Courier New;fontColor=#000000;" parent="Tta8IiUsY-lbWqiysxnZ-1" vertex="1">
          <mxGeometry x="580" y="1170" width="200" height="20" as="geometry" />
        </mxCell>
        <mxCell id="nGn2Ac0xjgQE0izvm5U2-10" value="6月初" style="rounded=0;whiteSpace=wrap;html=1;fontSize=12;fontStyle=0" parent="Tta8IiUsY-lbWqiysxnZ-1" vertex="1">
          <mxGeometry x="720" y="160" width="80" height="40" as="geometry" />
        </mxCell>
        <mxCell id="nGn2Ac0xjgQE0izvm5U2-12" value="&lt;div style=&quot;text-align: left;&quot;&gt;&lt;span style=&quot;background-color: initial;&quot;&gt;&lt;font color=&quot;#00cc00&quot; face=&quot;Helvetica&quot;&gt;&lt;b&gt;公布入园政策&lt;br&gt;园所开放日（7天）&lt;/b&gt;&lt;/font&gt;&lt;/span&gt;&lt;/div&gt;" style="text;html=1;align=center;verticalAlign=middle;resizable=0;points=[];autosize=1;strokeColor=none;fillColor=none;fontSize=12;fontFamily=Courier New;fontColor=#FF0000;" parent="Tta8IiUsY-lbWqiysxnZ-1" vertex="1">
          <mxGeometry x="590" y="200" width="120" height="40" as="geometry" />
        </mxCell>
        <mxCell id="nGn2Ac0xjgQE0izvm5U2-14" value="入&lt;br style=&quot;font-size: 13px;&quot;&gt;园&lt;br style=&quot;font-size: 13px;&quot;&gt;报&lt;br&gt;名&lt;br&gt;验&lt;br style=&quot;font-size: 13px;&quot;&gt;证" style="text;html=1;align=center;verticalAlign=middle;resizable=0;points=[];autosize=1;strokeColor=none;fillColor=none;fontSize=13;fontFamily=Courier New;fontColor=#00CC00;rotation=0;fontStyle=1" parent="Tta8IiUsY-lbWqiysxnZ-1" vertex="1">
          <mxGeometry x="200" y="750" width="30" height="100" as="geometry" />
        </mxCell>
      </root>
    </mxGraphModel>
  </diagram>
  <diagram id="GNPbyi4JPMzV0OLWaMmF" name="第 3 页">
    <mxGraphModel dx="2896" dy="1958" grid="1" gridSize="10" guides="1" tooltips="1" connect="1" arrows="1" fold="1" page="1" pageScale="1" pageWidth="827" pageHeight="1169" math="0" shadow="0">
      <root>
        <mxCell id="0" />
        <mxCell id="1" parent="0" />
        <mxCell id="J4nL0HO5fu_FmHbafslY-1" value="" style="triangle;whiteSpace=wrap;html=1;fontColor=#000000;direction=north;" parent="1" vertex="1">
          <mxGeometry x="-1280" y="-239.5" width="720" height="600.5" as="geometry" />
        </mxCell>
        <mxCell id="J4nL0HO5fu_FmHbafslY-2" value="" style="endArrow=none;html=1;fontColor=#000000;entryX=0.134;entryY=0.936;entryDx=0;entryDy=0;entryPerimeter=0;" parent="1" target="J4nL0HO5fu_FmHbafslY-1" edge="1">
          <mxGeometry width="50" height="50" relative="1" as="geometry">
            <mxPoint x="-1234" y="280.5" as="sourcePoint" />
            <mxPoint x="-650" y="321.5" as="targetPoint" />
            <Array as="points" />
          </mxGeometry>
        </mxCell>
        <mxCell id="J4nL0HO5fu_FmHbafslY-3" value="行业大势" style="text;html=1;strokeColor=none;fillColor=none;align=center;verticalAlign=middle;whiteSpace=wrap;rounded=0;fontColor=#000000;fontSize=15;fontStyle=1" parent="1" vertex="1">
          <mxGeometry x="-991.87" y="290" width="150" height="20" as="geometry" />
        </mxCell>
        <mxCell id="J4nL0HO5fu_FmHbafslY-4" value="" style="endArrow=none;html=1;fontColor=#000000;exitX=0.124;exitY=0.064;exitDx=0;exitDy=0;exitPerimeter=0;" parent="1" edge="1">
          <mxGeometry width="50" height="50" relative="1" as="geometry">
            <mxPoint x="-1185" y="202.02800000000025" as="sourcePoint" />
            <mxPoint x="-655" y="200.75" as="targetPoint" />
            <Array as="points" />
          </mxGeometry>
        </mxCell>
        <mxCell id="J4nL0HO5fu_FmHbafslY-5" value="" style="endArrow=none;html=1;fontColor=#000000;" parent="1" edge="1">
          <mxGeometry width="50" height="50" relative="1" as="geometry">
            <mxPoint x="-1135" y="120.5" as="sourcePoint" />
            <mxPoint x="-705" y="120.5" as="targetPoint" />
            <Array as="points" />
          </mxGeometry>
        </mxCell>
        <mxCell id="J4nL0HO5fu_FmHbafslY-6" value="" style="endArrow=none;html=1;fontColor=#000000;" parent="1" edge="1">
          <mxGeometry width="50" height="50" relative="1" as="geometry">
            <mxPoint x="-1090" y="40.5" as="sourcePoint" />
            <mxPoint x="-750" y="40.5" as="targetPoint" />
            <Array as="points" />
          </mxGeometry>
        </mxCell>
        <mxCell id="J4nL0HO5fu_FmHbafslY-7" value="" style="endArrow=none;html=1;fontColor=#000000;" parent="1" edge="1">
          <mxGeometry width="50" height="50" relative="1" as="geometry">
            <mxPoint x="-1040" y="-39.5" as="sourcePoint" />
            <mxPoint x="-800" y="-39.5" as="targetPoint" />
            <Array as="points" />
          </mxGeometry>
        </mxCell>
        <mxCell id="J4nL0HO5fu_FmHbafslY-8" value="" style="endArrow=none;html=1;fontColor=#000000;" parent="1" edge="1">
          <mxGeometry width="50" height="50" relative="1" as="geometry">
            <mxPoint x="-990" y="-118.5" as="sourcePoint" />
            <mxPoint x="-850" y="-118.5" as="targetPoint" />
            <Array as="points" />
          </mxGeometry>
        </mxCell>
        <mxCell id="J4nL0HO5fu_FmHbafslY-9" value="关注行业动态，分析行业底层逻辑，识别行业关键问题" style="text;html=1;strokeColor=none;fillColor=none;align=center;verticalAlign=middle;whiteSpace=wrap;rounded=0;fontColor=#808080;" parent="1" vertex="1">
          <mxGeometry x="-1042.5" y="317.5" width="240" height="20" as="geometry" />
        </mxCell>
        <mxCell id="J4nL0HO5fu_FmHbafslY-10" value="安全需求" style="text;html=1;strokeColor=none;fillColor=none;align=center;verticalAlign=middle;whiteSpace=wrap;rounded=0;fontColor=#000000;fontSize=15;fontStyle=1" parent="1" vertex="1">
          <mxGeometry x="-962.5" y="220.5" width="80" height="20" as="geometry" />
        </mxCell>
        <mxCell id="J4nL0HO5fu_FmHbafslY-11" value="安抚：恐惧、焦虑、空虚" style="text;html=1;strokeColor=none;fillColor=none;align=center;verticalAlign=middle;whiteSpace=wrap;rounded=0;fontColor=#808080;" parent="1" vertex="1">
          <mxGeometry x="-1017.5" y="244.5" width="190" height="20" as="geometry" />
        </mxCell>
        <mxCell id="J4nL0HO5fu_FmHbafslY-12" value="社交需求 / 心魔需求" style="text;html=1;strokeColor=none;fillColor=none;align=center;verticalAlign=middle;whiteSpace=wrap;rounded=0;fontColor=#000000;fontSize=15;fontStyle=1" parent="1" vertex="1">
          <mxGeometry x="-997.5" y="131" width="160" height="20" as="geometry" />
        </mxCell>
        <mxCell id="J4nL0HO5fu_FmHbafslY-13" value="需要、被需要" style="text;html=1;strokeColor=none;fillColor=none;align=center;verticalAlign=middle;whiteSpace=wrap;rounded=0;fontColor=#808080;" parent="1" vertex="1">
          <mxGeometry x="-965" y="159.43" width="90" height="20" as="geometry" />
        </mxCell>
        <mxCell id="J4nL0HO5fu_FmHbafslY-14" value="尊严、认可、权利、名誉" style="text;html=1;strokeColor=none;fillColor=none;align=center;verticalAlign=middle;whiteSpace=wrap;rounded=0;fontColor=#808080;" parent="1" vertex="1">
          <mxGeometry x="-1040" y="90.5" width="245" height="20" as="geometry" />
        </mxCell>
        <mxCell id="J4nL0HO5fu_FmHbafslY-15" value="社会需求" style="text;html=1;strokeColor=none;fillColor=none;align=center;verticalAlign=middle;whiteSpace=wrap;rounded=0;fontColor=#000000;fontSize=15;fontStyle=1" parent="1" vertex="1">
          <mxGeometry x="-960" y="60.5" width="80" height="20" as="geometry" />
        </mxCell>
        <mxCell id="J4nL0HO5fu_FmHbafslY-16" value="感知需求 - 感受当下" style="text;html=1;strokeColor=none;fillColor=none;align=center;verticalAlign=middle;whiteSpace=wrap;rounded=0;fontColor=#000000;fontSize=15;fontStyle=1" parent="1" vertex="1">
          <mxGeometry x="-991.87" y="-20" width="152.5" height="20" as="geometry" />
        </mxCell>
        <mxCell id="J4nL0HO5fu_FmHbafslY-17" value="求知、审美、享受、快乐、刺激" style="text;html=1;strokeColor=none;fillColor=none;align=center;verticalAlign=middle;whiteSpace=wrap;rounded=0;fontColor=#808080;" parent="1" vertex="1">
          <mxGeometry x="-1039.37" y="10.75" width="245" height="20" as="geometry" />
        </mxCell>
        <mxCell id="J4nL0HO5fu_FmHbafslY-18" value="自我实现 - 憧憬未来" style="text;html=1;strokeColor=none;fillColor=none;align=center;verticalAlign=middle;whiteSpace=wrap;rounded=0;fontColor=#000000;fontSize=15;fontStyle=1" parent="1" vertex="1">
          <mxGeometry x="-995.62" y="-99.5" width="160" height="20" as="geometry" />
        </mxCell>
        <mxCell id="J4nL0HO5fu_FmHbafslY-19" value="感悟、创作、提升、完善、传承" style="text;html=1;strokeColor=none;fillColor=none;align=center;verticalAlign=middle;whiteSpace=wrap;rounded=0;fontColor=#808080;" parent="1" vertex="1">
          <mxGeometry x="-1042.5" y="-69.5" width="245" height="20" as="geometry" />
        </mxCell>
        <mxCell id="J4nL0HO5fu_FmHbafslY-20" value="超我需求" style="text;html=1;strokeColor=none;fillColor=none;align=center;verticalAlign=middle;whiteSpace=wrap;rounded=0;fontColor=#000000;fontSize=15;fontStyle=1" parent="1" vertex="1">
          <mxGeometry x="-960" y="-159.5" width="80" height="20" as="geometry" />
        </mxCell>
        <mxCell id="J4nL0HO5fu_FmHbafslY-34" value="占有欲、控制欲、征服欲" style="text;html=1;strokeColor=none;fillColor=none;align=center;verticalAlign=middle;whiteSpace=wrap;rounded=0;fontColor=#808080;" parent="1" vertex="1">
          <mxGeometry x="-1039.37" y="179.43" width="245" height="20" as="geometry" />
        </mxCell>
      </root>
    </mxGraphModel>
  </diagram>
  <diagram id="svnWST-L3pIT6VZdRss2" name="第 4 页">
    <mxGraphModel dx="1434" dy="790" grid="1" gridSize="10" guides="1" tooltips="1" connect="1" arrows="1" fold="1" page="1" pageScale="1" pageWidth="827" pageHeight="1169" math="0" shadow="0">
      <root>
        <mxCell id="0" />
        <mxCell id="1" parent="0" />
        <mxCell id="f5iVIWPJSMTWPhaC1-fk-1" value="" style="rounded=0;whiteSpace=wrap;html=1;fillColor=none;" vertex="1" parent="1">
          <mxGeometry x="480" y="219" width="730" height="490" as="geometry" />
        </mxCell>
        <mxCell id="f5iVIWPJSMTWPhaC1-fk-2" value="" style="rounded=0;whiteSpace=wrap;html=1;fillColor=#dae8fc;direction=west;strokeColor=#6c8ebf;" vertex="1" parent="1">
          <mxGeometry x="960" y="219" width="240" height="380" as="geometry" />
        </mxCell>
        <mxCell id="f5iVIWPJSMTWPhaC1-fk-3" value="" style="rounded=0;whiteSpace=wrap;html=1;direction=south;shadow=0;glass=0;fillStyle=hachure;fillColor=#f0a30a;strokeColor=#BD7000;gradientDirection=radial;fontColor=#000000;sketch=1;curveFitting=1;jiggle=2;" vertex="1" parent="1">
          <mxGeometry x="820" y="465" width="380" height="240" as="geometry" />
        </mxCell>
        <mxCell id="f5iVIWPJSMTWPhaC1-fk-4" value="" style="rounded=0;whiteSpace=wrap;html=1;" vertex="1" parent="1">
          <mxGeometry x="140" y="1154" width="190" height="15" as="geometry" />
        </mxCell>
        <mxCell id="f5iVIWPJSMTWPhaC1-fk-5" value="" style="verticalLabelPosition=bottom;verticalAlign=top;html=1;shape=mxgraph.basic.pie;startAngle=0;endAngle=0.25;fillColor=#dae8fc;strokeColor=#6c8ebf;shadow=0;sketch=1;curveFitting=1;jiggle=2;" vertex="1" parent="1">
          <mxGeometry x="370" y="519" width="380" height="380" as="geometry" />
        </mxCell>
        <mxCell id="f5iVIWPJSMTWPhaC1-fk-6" value="" style="rounded=0;whiteSpace=wrap;html=1;shadow=0;glass=0;fillColor=#f5f5f5;strokeColor=#666666;fontColor=#333333;" vertex="1" parent="1">
          <mxGeometry x="1110" y="119" width="100" height="100" as="geometry" />
        </mxCell>
        <mxCell id="f5iVIWPJSMTWPhaC1-fk-8" value="" style="rounded=0;whiteSpace=wrap;html=1;fillColor=#f5f5f5;strokeColor=#666666;fontColor=#333333;" vertex="1" parent="1">
          <mxGeometry x="480" y="119" width="80" height="100" as="geometry" />
        </mxCell>
        <mxCell id="f5iVIWPJSMTWPhaC1-fk-9" value="" style="rounded=0;whiteSpace=wrap;html=1;fillColor=#dae8fc;gradientColor=#7ea6e0;strokeColor=#6c8ebf;glass=1;gradientDirection=radial;shadow=0;" vertex="1" parent="1">
          <mxGeometry x="560" y="119" width="550" height="10" as="geometry" />
        </mxCell>
        <mxCell id="f5iVIWPJSMTWPhaC1-fk-10" value="" style="rounded=0;whiteSpace=wrap;html=1;fillColor=#cce5ff;strokeColor=#36393d;sketch=1;curveFitting=1;jiggle=2;" vertex="1" parent="1">
          <mxGeometry x="560" y="129" width="300" height="150" as="geometry" />
        </mxCell>
        <mxCell id="f5iVIWPJSMTWPhaC1-fk-11" value="" style="rounded=0;whiteSpace=wrap;html=1;direction=south;shadow=0;glass=0;fillStyle=hachure;fillColor=#f0a30a;strokeColor=#BD7000;gradientDirection=radial;fontColor=#000000;sketch=1;curveFitting=1;jiggle=2;" vertex="1" parent="1">
          <mxGeometry x="480" y="218" width="80" height="491" as="geometry" />
        </mxCell>
        <mxCell id="f5iVIWPJSMTWPhaC1-fk-12" value="" style="rounded=1;whiteSpace=wrap;html=1;shadow=1;glass=1;fillColor=#dae8fc;strokeColor=#6c8ebf;" vertex="1" parent="1">
          <mxGeometry x="600" y="297.5" width="90" height="90" as="geometry" />
        </mxCell>
        <mxCell id="f5iVIWPJSMTWPhaC1-fk-13" value="" style="rounded=1;whiteSpace=wrap;html=1;shadow=1;glass=1;fillColor=#dae8fc;strokeColor=#6c8ebf;" vertex="1" parent="1">
          <mxGeometry x="737" y="297.5" width="90" height="90" as="geometry" />
        </mxCell>
        <mxCell id="f5iVIWPJSMTWPhaC1-fk-17" value="" style="rounded=1;whiteSpace=wrap;html=1;sketch=1;curveFitting=1;jiggle=2;shadow=1;glass=0;" vertex="1" parent="1">
          <mxGeometry x="1030" y="230" width="120" height="60" as="geometry" />
        </mxCell>
        <mxCell id="f5iVIWPJSMTWPhaC1-fk-7" value="" style="rounded=0;whiteSpace=wrap;html=1;direction=south;shadow=0;glass=0;fillStyle=hachure;fillColor=#f0a30a;strokeColor=#BD7000;gradientDirection=radial;fontColor=#000000;sketch=1;curveFitting=1;jiggle=2;" vertex="1" parent="1">
          <mxGeometry x="1120" y="220" width="80" height="245" as="geometry" />
        </mxCell>
        <mxCell id="f5iVIWPJSMTWPhaC1-fk-18" value="" style="rounded=1;whiteSpace=wrap;html=1;sketch=1;curveFitting=1;jiggle=2;shadow=1;glass=0;direction=south;" vertex="1" parent="1">
          <mxGeometry x="1120" y="525" width="70" height="120" as="geometry" />
        </mxCell>
        <mxCell id="f5iVIWPJSMTWPhaC1-fk-19" value="" style="rounded=1;whiteSpace=wrap;html=1;fillColor=#ffcd28;strokeColor=#d79b00;shadow=1;glass=1;gradientColor=#ffa500;gradientDirection=north;" vertex="1" parent="1">
          <mxGeometry x="840" y="455" width="90" height="10" as="geometry" />
        </mxCell>
        <mxCell id="f5iVIWPJSMTWPhaC1-fk-20" value="" style="rounded=1;whiteSpace=wrap;html=1;fillColor=#ffcd28;strokeColor=#d79b00;shadow=1;glass=1;gradientColor=none;gradientDirection=north;fillStyle=solid;" vertex="1" parent="1">
          <mxGeometry x="930" y="465" width="190" height="10" as="geometry" />
        </mxCell>
        <mxCell id="f5iVIWPJSMTWPhaC1-fk-21" value="" style="rounded=1;whiteSpace=wrap;html=1;fillColor=#ffcd28;strokeColor=#d79b00;shadow=1;glass=1;gradientColor=#ffa500;gradientDirection=north;" vertex="1" parent="1">
          <mxGeometry x="820" y="465" width="20" height="10" as="geometry" />
        </mxCell>
        <mxCell id="f5iVIWPJSMTWPhaC1-fk-23" value="" style="html=1;verticalLabelPosition=bottom;align=center;labelBackgroundColor=#ffffff;verticalAlign=top;strokeWidth=2;strokeColor=#0080F0;shadow=0;dashed=0;shape=mxgraph.ios7.icons.alarm_clock;" vertex="1" parent="1">
          <mxGeometry x="1170" y="425" width="27" height="30" as="geometry" />
        </mxCell>
        <mxCell id="f5iVIWPJSMTWPhaC1-fk-24" value="" style="sketch=0;pointerEvents=1;shadow=0;dashed=0;html=1;strokeColor=none;fillColor=#505050;labelPosition=center;verticalLabelPosition=bottom;verticalAlign=top;outlineConnect=0;align=center;shape=mxgraph.office.concepts.book_journal;" vertex="1" parent="1">
          <mxGeometry x="1060" y="145" width="41" height="49" as="geometry" />
        </mxCell>
        <mxCell id="f5iVIWPJSMTWPhaC1-fk-25" value="" style="sketch=0;pointerEvents=1;shadow=0;dashed=0;html=1;strokeColor=none;fillColor=#505050;labelPosition=center;verticalLabelPosition=bottom;verticalAlign=top;outlineConnect=0;align=center;shape=mxgraph.office.concepts.book_journal;" vertex="1" parent="1">
          <mxGeometry x="1130" y="410" width="31" height="45" as="geometry" />
        </mxCell>
        <mxCell id="f5iVIWPJSMTWPhaC1-fk-26" value="" style="sketch=0;pointerEvents=1;shadow=0;dashed=0;html=1;strokeColor=none;fillColor=#505050;labelPosition=center;verticalLabelPosition=bottom;verticalAlign=top;outlineConnect=0;align=center;shape=mxgraph.office.concepts.address_book;" vertex="1" parent="1">
          <mxGeometry x="620" y="200" width="60" height="41" as="geometry" />
        </mxCell>
        <mxCell id="f5iVIWPJSMTWPhaC1-fk-28" value="" style="shape=image;html=1;verticalAlign=top;verticalLabelPosition=bottom;labelBackgroundColor=#ffffff;imageAspect=0;aspect=fixed;image=https://cdn4.iconfinder.com/data/icons/ios-web-user-interface-multi-circle-flat-vol-3/512/Bedroom_table_lamp_electronic_desk_lamp-128.png" vertex="1" parent="1">
          <mxGeometry x="570" y="140" width="50" height="50" as="geometry" />
        </mxCell>
        <mxCell id="f5iVIWPJSMTWPhaC1-fk-29" value="" style="sketch=0;pointerEvents=1;shadow=0;dashed=0;html=1;strokeColor=none;fillColor=#505050;labelPosition=center;verticalLabelPosition=bottom;verticalAlign=top;outlineConnect=0;align=center;shape=mxgraph.office.concepts.address_book;" vertex="1" parent="1">
          <mxGeometry x="760" y="200" width="60" height="41" as="geometry" />
        </mxCell>
        <mxCell id="f5iVIWPJSMTWPhaC1-fk-30" value="" style="sketch=0;pointerEvents=1;shadow=0;dashed=0;html=1;strokeColor=none;fillColor=#505050;labelPosition=center;verticalLabelPosition=bottom;verticalAlign=top;outlineConnect=0;align=center;shape=mxgraph.office.concepts.book_journal;direction=east;" vertex="1" parent="1">
          <mxGeometry x="1019" y="145" width="41" height="49" as="geometry" />
        </mxCell>
        <mxCell id="f5iVIWPJSMTWPhaC1-fk-31" value="" style="shape=image;html=1;verticalAlign=top;verticalLabelPosition=bottom;labelBackgroundColor=#ffffff;imageAspect=0;aspect=fixed;image=https://cdn0.iconfinder.com/data/icons/education-1006/32/backpack_bag_school_travel_rucksack_luggage_schoolbag_baggage_backpacker_traveler-128.png" vertex="1" parent="1">
          <mxGeometry x="860" y="129.5" width="80" height="80" as="geometry" />
        </mxCell>
        <mxCell id="f5iVIWPJSMTWPhaC1-fk-32" value="" style="rounded=1;whiteSpace=wrap;html=1;fillColor=#ffcd28;strokeColor=#d79b00;shadow=1;glass=1;gradientColor=none;gradientDirection=north;fillStyle=solid;direction=south;arcSize=0;" vertex="1" parent="1">
          <mxGeometry x="810" y="475" width="10" height="225" as="geometry" />
        </mxCell>
      </root>
    </mxGraphModel>
  </diagram>
</mxfile>
